<?xml version="1.0" encoding="UTF-8"?><svg xmlns="http://www.w3.org/2000/svg" xmlns:xlink="http://www.w3.org/1999/xlink" width="30pt" zoomAndPan="magnify" viewBox="0 0 30 30.000001" height="30.000001pt" preserveAspectRatio="xMidYMid meet" version="1.2"><defs><clipPath xml:id="clip1" id="clip1"><path d="M 0.484375 0 L 29.515625 0 L 29.515625 29.03125 L 0.484375 29.03125 Z M 0.484375 0 "/></clipPath><clipPath xml:id="clip2" id="clip2"><path d="M 6 0 L 24 0 L 24 29 L 6 29 Z M 6 0 "/></clipPath><clipPath xml:id="clip3" id="clip3"><path d="M -0.441406 15.765625 L 14.648438 0.0664062 L 30.347656 15.15625 L 15.257812 30.851562 Z M -0.441406 15.765625 "/></clipPath><clipPath xml:id="clip4" id="clip4"><path d="M -0.441406 15.765625 L 14.648438 0.0664062 L 30.347656 15.15625 L 15.257812 30.851562 Z M -0.441406 15.765625 "/></clipPath></defs><g xml:id="surface1" id="surface1"><g clip-rule="nonzero" clip-path="url(#clip1)"><path style=" stroke:none;fill-rule:nonzero;fill:rgb(100%,100%,100%);fill-opacity:1;" d="M 0.484375 0 L 29.515625 0 L 29.515625 36.289062 L 0.484375 36.289062 Z M 0.484375 0 "/><path style=" stroke:none;fill-rule:nonzero;fill:rgb(100%,100%,100%);fill-opacity:1;" d="M 0.484375 0 L 29.515625 0 L 29.515625 29.03125 L 0.484375 29.03125 Z M 0.484375 0 "/><path style=" stroke:none;fill-rule:nonzero;fill:rgb(100%,8.628845%,8.628845%);fill-opacity:1;" d="M 0.484375 0 L 29.515625 0 L 29.515625 29.03125 L 0.484375 29.03125 Z M 0.484375 0 "/></g><g clip-rule="nonzero" clip-path="url(#clip2)"><g clip-rule="nonzero" clip-path="url(#clip3)"><g clip-rule="nonzero" clip-path="url(#clip4)"><path style=" stroke:none;fill-rule:nonzero;fill:rgb(100%,100%,100%);fill-opacity:1;" d="M 12.957031 1.824219 C 10.449219 4.433594 8.875 9.65625 9.691406 14.964844 L 7.820312 16.914062 C 6.464844 18.320312 6.742188 20.140625 7.320312 21.761719 L 8.089844 23.9375 L 11.46875 20.421875 L 15.050781 20.351562 L 18.628906 20.28125 L 22.144531 23.660156 L 22.832031 21.457031 C 23.34375 19.8125 23.546875 17.984375 22.140625 16.628906 L 20.191406 14.757812 C 20.796875 9.417969 19.015625 4.265625 16.410156 1.757812 L 14.648438 0.0664062 Z M 13.621094 8.441406 C 14.265625 7.769531 15.335938 7.75 16.007812 8.394531 C 16.679688 9.042969 16.699219 10.109375 16.054688 10.78125 C 15.410156 11.453125 14.339844 11.476562 13.667969 10.828125 C 12.996094 10.183594 12.976562 9.113281 13.621094 8.441406 Z M 13.320312 23.371094 L 13.34375 24.5625 C 13.378906 26.289062 15.214844 28.703125 15.214844 28.703125 C 15.214844 28.703125 16.960938 26.40625 16.921875 24.492188 L 16.898438 23.300781 Z M 13.320312 23.371094 "/></g></g></g></g></svg>