<?xml version="1.0" encoding="UTF-8"?><svg xmlns="http://www.w3.org/2000/svg" xmlns:xlink="http://www.w3.org/1999/xlink" width="30" zoomAndPan="magnify" viewBox="0 0 30 30.000001" height="30.000001" preserveAspectRatio="xMidYMid meet" version="1.0"><defs><clipPath id="clip-0"><path d="M 1 2 L 29 2 L 29 26.304688 L 1 26.304688 Z M 1 2 " clip-rule="nonzero"/></clipPath></defs><g clip-path="url(#clip-0)"><path fill="rgb(100%, 8.628845%, 8.628845%)" d="M 13.769531 25.628906 L 3.203125 14.417969 C 0.527344 11.574219 0.5625 7.085938 3.382812 4.378906 C 6.246094 1.632812 10.804688 1.753906 13.519531 4.632812 L 14.953125 6.15625 L 16.390625 4.632812 C 19.082031 1.777344 23.589844 1.632812 26.457031 4.316406 C 29.328125 6.996094 29.46875 11.484375 26.777344 14.339844 L 16.140625 25.628906 C 15.5 26.308594 14.410156 26.308594 13.769531 25.628906 " fill-opacity="1" fill-rule="nonzero"/></g><path fill="rgb(100%, 100%, 100%)" d="M 5.355469 6.003906 C 5.355469 6.539062 4.917969 6.976562 4.378906 6.976562 C 3.839844 6.976562 3.402344 6.539062 3.402344 6.003906 C 3.402344 5.464844 3.839844 5.03125 4.378906 5.03125 C 4.917969 5.03125 5.355469 5.464844 5.355469 6.003906 " fill-opacity="1" fill-rule="nonzero"/><path fill="rgb(100%, 100%, 100%)" d="M 2.171875 9.503906 C 2.046875 11.445312 3.007812 13.421875 4.617188 14.523438 C 4.726562 13.980469 4.582031 13.417969 4.363281 12.910156 C 4.148438 12.402344 3.855469 11.925781 3.648438 11.414062 C 3.460938 10.945312 3.347656 10.453125 3.28125 9.953125 C 3.234375 9.628906 3.355469 8.800781 3.191406 8.542969 C 2.65625 7.703125 2.203125 9.007812 2.171875 9.503906 " fill-opacity="1" fill-rule="nonzero"/></svg>