<?xml version="1.0" encoding="UTF-8"?><svg xmlns="http://www.w3.org/2000/svg" xmlns:xlink="http://www.w3.org/1999/xlink" width="30pt" zoomAndPan="magnify" viewBox="0 0 30 30.000001" height="30.000001pt" preserveAspectRatio="xMidYMid meet" version="1.2"><g xml:id="surface1" id="surface1"><path style="fill:none;stroke-width:4;stroke-linecap:round;stroke-linejoin:round;stroke:rgb(22.749329%,26.669312%,38.038635%);stroke-opacity:1;stroke-miterlimit:4;" d="M 18.00598 17.999541 L 69.003275 17.994182 L 68.997286 59.984421 C 68.997889 60.925504 68.825164 61.821247 68.464531 62.674221 C 68.118476 63.524624 67.605881 64.282949 66.9559 64.944055 C 66.291342 65.607732 65.537323 66.105017 64.66988 66.470497 C 63.814419 66.818684 62.915824 67.007491 61.998059 67.002333 L 25.007272 66.997204 C 24.07493 66.994616 23.186917 66.817226 22.328656 66.467605 C 21.470396 66.117984 20.702793 65.600573 20.045617 64.942247 C 19.391037 64.298643 18.88123 63.538429 18.53337 62.673758 C 18.170932 61.811657 17.997998 60.916141 17.999991 59.989781 Z M 18.00598 17.999541 " transform="matrix(0.259889,0.0453726,-0.0458255,0.257321,6.090586,2.543554)"/><path style=" stroke:none;fill-rule:evenodd;fill:rgb(100%,8.628845%,8.628845%);fill-opacity:1;" d="M 15.96875 13.289062 C 16.242188 13.335938 16.5 13.433594 16.734375 13.585938 C 16.972656 13.734375 17.167969 13.921875 17.332031 14.148438 C 17.492188 14.375 17.601562 14.625 17.664062 14.894531 C 17.722656 15.164062 17.730469 15.4375 17.679688 15.710938 C 17.632812 15.984375 17.53125 16.238281 17.382812 16.46875 C 17.230469 16.703125 17.042969 16.902344 16.8125 17.058594 C 16.582031 17.21875 16.332031 17.328125 16.058594 17.386719 C 15.785156 17.449219 15.511719 17.453125 15.234375 17.40625 C 14.957031 17.359375 14.703125 17.257812 14.464844 17.109375 C 14.230469 16.960938 14.03125 16.773438 13.871094 16.546875 C 13.710938 16.320312 13.601562 16.070312 13.539062 15.800781 C 13.480469 15.527344 13.472656 15.257812 13.523438 14.984375 C 13.570312 14.710938 13.671875 14.457031 13.820312 14.222656 C 13.972656 13.992188 14.160156 13.792969 14.390625 13.636719 C 14.621094 13.476562 14.871094 13.367188 15.144531 13.308594 C 15.417969 13.246094 15.691406 13.242188 15.96875 13.289062 Z M 15.96875 13.289062 "/><path style="fill:none;stroke-width:4;stroke-linecap:round;stroke-linejoin:round;stroke:rgb(22.749329%,26.669312%,38.038635%);stroke-opacity:1;stroke-miterlimit:4;" d="M 55.000356 17.002127 C 54.996932 10.930542 50.06941 6.000457 43.995902 5.993567 C 37.92499 6.001399 33.005902 10.921953 32.994749 16.996108 " transform="matrix(0.259889,0.0453726,-0.0458255,0.257321,6.090586,2.543554)"/><path style="fill:none;stroke-width:1;stroke-linecap:round;stroke-linejoin:round;stroke:rgb(22.749329%,26.669312%,38.038635%);stroke-opacity:1;stroke-miterlimit:4;" d="M 33.005373 25.495299 C 32.584231 25.493655 32.229784 25.358807 31.936841 25.06131 C 31.643897 24.763813 31.506111 24.408597 31.494327 24.000802 C 31.497121 23.590437 31.64409 23.230552 31.937829 22.93587 C 32.231569 22.641188 32.583019 22.503316 33.004161 22.50496 C 33.408129 22.494451 33.765172 22.644021 34.058115 22.941518 C 34.351059 23.239015 34.503422 23.591661 34.500629 24.002027 C 34.497835 24.412392 34.350867 24.772277 34.057127 25.066959 C 33.763388 25.36164 33.411938 25.499513 33.005373 25.495299 Z M 54.996403 25.503888 C 54.589838 25.499674 54.232796 25.350103 53.942448 25.067329 C 53.649504 24.769832 53.497141 24.417186 53.499934 24.006821 C 53.500132 23.581733 53.649697 23.23657 53.943436 22.941889 C 54.237176 22.647207 54.58603 22.494612 54.992594 22.498826 C 55.413736 22.50047 55.770779 22.65004 56.061126 22.932814 C 56.35407 23.230311 56.506434 23.582957 56.50364 23.993322 C 56.503442 24.41841 56.353878 24.763573 56.060138 25.058254 C 55.766399 25.352936 55.417545 25.505531 54.996403 25.503888 Z M 54.996403 25.503888 " transform="matrix(0.259889,0.0453726,-0.0458255,0.257321,6.090586,2.543554)"/><path style="fill:none;stroke-width:2;stroke-linecap:round;stroke-linejoin:round;stroke:rgb(0%,78.819275%,40.388489%);stroke-opacity:1;stroke-miterlimit:4;" d="M 14.06552 14.064307 L 8.281526 7.175156 M 18.927907 11.294198 L 18.490153 3.356097 M 10.49552 18.367468 L 2.934528 16.573498 " transform="matrix(0.259889,0.0453726,-0.0458255,0.257321,6.090586,2.543554)"/><path style="fill:none;stroke-width:1;stroke-linecap:round;stroke-linejoin:miter;stroke:rgb(100%,8.628845%,8.628845%);stroke-opacity:1;stroke-miterlimit:4;" d="M 0.497155 -0.000559338 L 3.316684 -0.00198441 " transform="matrix(-0.666212,-0.368844,0.351555,-0.634984,8.261095,8.06583)"/><path style=" stroke:none;fill-rule:nonzero;fill:rgb(100%,100%,100%);fill-opacity:1;" d="M 4.617188 5.96875 L 8.789062 5.96875 L 8.789062 9.414062 L 4.617188 9.414062 Z M 4.617188 5.96875 "/><path style=" stroke:none;fill-rule:nonzero;fill:rgb(100%,100%,100%);fill-opacity:1;" d="M 8.695312 9.324219 L 8.878906 9.324219 L 8.878906 9.503906 L 8.695312 9.503906 Z M 4.523438 6.058594 L 4.710938 6.058594 L 4.710938 9.324219 L 4.523438 9.324219 Z M 4.523438 9.324219 L 4.710938 9.324219 L 4.710938 9.503906 L 4.523438 9.503906 Z M 8.695312 6.058594 L 8.878906 6.058594 L 8.878906 9.324219 L 8.695312 9.324219 Z M 4.710938 9.324219 L 8.695312 9.324219 L 8.695312 9.503906 L 4.710938 9.503906 Z M 8.695312 5.875 L 8.878906 5.875 L 8.878906 6.058594 L 8.695312 6.058594 Z M 4.523438 5.875 L 4.710938 5.875 L 4.710938 6.058594 L 4.523438 6.058594 Z M 4.710938 5.875 L 8.695312 5.875 L 8.695312 6.058594 L 4.710938 6.058594 Z M 4.710938 5.875 "/><path style=" stroke:none;fill-rule:nonzero;fill:rgb(100%,100%,100%);fill-opacity:1;" d="M 7.300781 7.28125 L 7.15625 2.417969 L 11.289062 2.296875 L 11.433594 7.15625 Z M 7.300781 7.28125 "/><path style=" stroke:none;fill-rule:nonzero;fill:rgb(100%,100%,100%);fill-opacity:1;" d="M 11.183594 2.40625 L 11.175781 2.191406 L 11.394531 2.183594 L 11.402344 2.402344 Z M 7.410156 7.382812 L 7.40625 7.167969 L 11.320312 7.050781 L 11.328125 7.269531 Z M 11.328125 7.269531 L 11.320312 7.050781 L 11.539062 7.046875 L 11.542969 7.261719 Z M 7.269531 2.523438 L 7.261719 2.304688 L 11.175781 2.191406 L 11.183594 2.40625 Z M 11.320312 7.050781 L 11.183594 2.40625 L 11.402344 2.402344 L 11.539062 7.046875 Z M 7.050781 2.53125 L 7.042969 2.3125 L 7.261719 2.304688 L 7.269531 2.523438 Z M 7.195312 7.390625 L 7.1875 7.175781 L 7.40625 7.167969 L 7.410156 7.382812 Z M 7.1875 7.175781 L 7.050781 2.53125 L 7.269531 2.523438 L 7.40625 7.167969 Z M 7.1875 7.175781 "/></g></svg>