<?xml version="1.0" encoding="UTF-8"?><svg xmlns="http://www.w3.org/2000/svg" xmlns:xlink="http://www.w3.org/1999/xlink" width="375pt" zoomAndPan="magnify" viewBox="0 0 375 374.999991" height="374.999991pt" preserveAspectRatio="xMidYMid meet" version="1.2"><g xml:id="surface1" id="surface1"><path style="fill:none;stroke-width:4;stroke-linecap:round;stroke-linejoin:round;stroke:rgb(22.749329%,26.669312%,38.038635%);stroke-opacity:1;stroke-miterlimit:4;" d="M 31.000115 -1.99954 L 84.000004 -1.99954 C 84.163863 -1.99954 84.326577 -1.991527 84.490436 -1.975502 C 84.653149 -1.959476 84.814717 -1.935438 84.975139 -1.903386 C 85.13556 -1.87248 85.294836 -1.832416 85.45182 -1.784339 C 85.607659 -1.737407 85.762351 -1.682461 85.913606 -1.619504 C 86.06486 -1.556546 86.212677 -1.48672 86.357057 -1.410026 C 86.501437 -1.332187 86.641233 -1.248624 86.777591 -1.157049 C 86.913949 -1.066619 87.045724 -0.96932 87.17177 -0.865154 C 87.298962 -0.760987 87.419278 -0.651097 87.535011 -0.535483 C 87.650743 -0.41987 87.760747 -0.298533 87.865021 -0.171472 C 87.969295 -0.0455567 88.066694 0.0860825 88.157218 0.2223 C 88.247741 0.358518 88.332536 0.49817 88.409309 0.643546 C 88.487228 0.787777 88.557126 0.935441 88.619003 1.08654 C 88.682026 1.237639 88.737027 1.392172 88.785154 1.548995 C 88.832135 1.705817 88.87224 1.863784 88.904324 2.02404 C 88.936409 2.185441 88.959326 2.346843 88.975368 2.509388 C 88.99141 2.673079 89.000577 2.836769 88.999431 3.00046 L 88.999431 50.000231 C 89.000577 50.163921 88.99141 50.327612 88.975368 50.490157 C 88.959326 50.652703 88.936409 50.815249 88.904324 50.975505 C 88.87224 51.135762 88.832135 51.294873 88.785154 51.451696 C 88.737027 51.608518 88.682026 51.761906 88.619003 51.913005 C 88.557126 52.065249 88.487228 52.212914 88.409309 52.357144 C 88.332536 52.501375 88.247741 52.642172 88.157218 52.77839 C 88.066694 52.913463 87.969295 53.045102 87.865021 53.172163 C 87.760747 53.298079 87.650743 53.419416 87.535011 53.535029 C 87.419278 53.651787 87.298962 53.761677 87.17177 53.864699 C 87.045724 53.968866 86.913949 54.066165 86.777591 54.15774 C 86.641233 54.24817 86.501437 54.332877 86.357057 54.409571 C 86.212677 54.486265 86.06486 54.557236 85.913606 54.619049 C 85.762351 54.682007 85.607659 54.736952 85.45182 54.785029 C 85.294836 54.831961 85.13556 54.872025 84.975139 54.904077 C 84.814717 54.936128 84.653149 54.960166 84.490436 54.976192 C 84.326577 54.992218 84.163863 55.000231 84.000004 55.000231 L 31.000115 55.000231 C 30.836256 55.000231 30.672397 54.992218 30.509683 54.976192 C 30.34697 54.960166 30.185402 54.936128 30.024981 54.904077 C 29.863413 54.872025 29.705283 54.831961 29.548299 54.785029 C 29.391315 54.736952 29.237768 54.682007 29.086514 54.619049 C 28.935259 54.557236 28.787442 54.486265 28.643062 54.409571 C 28.498683 54.332877 28.357741 54.24817 28.222528 54.15774 C 28.08617 54.066165 27.954395 53.968866 27.828349 53.864699 C 27.701158 53.761677 27.579696 53.651787 27.463963 53.535029 C 27.34823 53.419416 27.239373 53.298079 27.135098 53.172163 C 27.030824 53.045102 26.933425 52.913463 26.842902 52.77839 C 26.751232 52.642172 26.667584 52.501375 26.590811 52.357144 C 26.512891 52.212914 26.442993 52.065249 26.381116 51.913005 C 26.318094 51.761906 26.263092 51.608518 26.214965 51.451696 C 26.167985 51.294873 26.127879 51.135762 26.095795 50.975505 C 26.063711 50.815249 26.039647 50.652703 26.023605 50.490157 C 26.007563 50.327612 25.999542 50.163921 25.999542 50.000231 L 25.999542 3.00046 C 25.999542 2.836769 26.007563 2.673079 26.023605 2.509388 C 26.039647 2.346843 26.063711 2.185441 26.095795 2.02404 C 26.127879 1.863784 26.167985 1.705817 26.214965 1.548995 C 26.263092 1.392172 26.318094 1.237639 26.381116 1.08654 C 26.442993 0.935441 26.512891 0.787777 26.590811 0.643546 C 26.667584 0.49817 26.751232 0.358518 26.842902 0.2223 C 26.933425 0.0860825 27.030824 -0.0455567 27.135098 -0.171472 C 27.239373 -0.298533 27.34823 -0.41987 27.463963 -0.535483 C 27.579696 -0.651097 27.701158 -0.760987 27.828349 -0.865154 C 27.954395 -0.96932 28.08617 -1.066619 28.222528 -1.157049 C 28.357741 -1.248624 28.498683 -1.332187 28.643062 -1.410026 C 28.787442 -1.48672 28.935259 -1.556546 29.086514 -1.619504 C 29.237768 -1.682461 29.391315 -1.737407 29.548299 -1.784339 C 29.705283 -1.832416 29.863413 -1.87248 30.024981 -1.903386 C 30.185402 -1.935438 30.34697 -1.959476 30.509683 -1.975502 C 30.672397 -1.991527 30.836256 -1.99954 31.000115 -1.99954 Z M 31.000115 -1.99954 " transform="matrix(3.408984,0,0,3.4125,3.414848,97.237494)"/><path style="fill:none;stroke-width:1;stroke-linecap:round;stroke-linejoin:round;stroke:rgb(22.749329%,26.669312%,38.038635%);stroke-opacity:1;stroke-miterlimit:4;" d="M 58.000232 12.644462 L 49.500174 16.800826 L 49.500174 -0.499998 L 66.500289 -0.499998 L 66.500289 16.800826 Z M 58.000232 12.644462 " transform="matrix(3.408984,0,0,3.4125,3.414848,97.237494)"/><path style="fill:none;stroke-width:1;stroke-linecap:round;stroke-linejoin:round;stroke:rgb(22.749329%,26.669312%,38.038635%);stroke-opacity:1;stroke-miterlimit:4;" d="M 35.499944 45.50046 L 47.499486 45.50046 M 37.499485 45.50046 L 37.499485 35.50046 M 45.499944 45.50046 L 45.499944 35.50046 M 35.499944 37.500231 L 37.499485 35.50046 L 39.500173 37.500231 M 43.500403 37.500231 L 45.496507 35.50046 L 47.499486 37.500231 " transform="matrix(3.408984,0,0,3.4125,3.414848,97.237494)"/><path style=" stroke:none;fill-rule:nonzero;fill:rgb(100%,8.628845%,8.628845%);fill-opacity:1;" d="M 259.089844 199.613281 C 259.089844 200.507812 259 201.394531 258.828125 202.277344 C 258.652344 203.15625 258.394531 204.007812 258.050781 204.835938 C 257.707031 205.664062 257.289062 206.449219 256.789062 207.195312 C 256.292969 207.941406 255.726562 208.628906 255.09375 209.265625 C 254.460938 209.898438 253.773438 210.464844 253.027344 210.960938 C 252.285156 211.460938 251.5 211.878906 250.671875 212.222656 C 249.84375 212.566406 248.992188 212.824219 248.113281 213 C 247.234375 213.175781 246.347656 213.261719 245.453125 213.261719 C 244.558594 213.261719 243.671875 213.175781 242.792969 213 C 241.914062 212.824219 241.0625 212.566406 240.234375 212.222656 C 239.40625 211.878906 238.621094 211.460938 237.878906 210.960938 C 237.132812 210.464844 236.445312 209.898438 235.8125 209.265625 C 235.175781 208.628906 234.613281 207.941406 234.113281 207.195312 C 233.617188 206.449219 233.199219 205.664062 232.855469 204.835938 C 232.511719 204.007812 232.253906 203.15625 232.078125 202.277344 C 231.902344 201.394531 231.816406 200.507812 231.816406 199.613281 C 231.816406 198.714844 231.902344 197.828125 232.078125 196.949219 C 232.253906 196.070312 232.511719 195.21875 232.855469 194.390625 C 233.199219 193.5625 233.617188 192.773438 234.113281 192.027344 C 234.613281 191.285156 235.175781 190.59375 235.8125 189.960938 C 236.445312 189.328125 237.132812 188.761719 237.878906 188.261719 C 238.621094 187.765625 239.40625 187.34375 240.234375 187 C 241.0625 186.660156 241.914062 186.398438 242.792969 186.226562 C 243.671875 186.050781 244.558594 185.960938 245.453125 185.960938 C 246.347656 185.960938 247.234375 186.050781 248.113281 186.226562 C 248.992188 186.398438 249.84375 186.660156 250.671875 187 C 251.5 187.34375 252.285156 187.765625 253.027344 188.261719 C 253.773438 188.761719 254.460938 189.328125 255.09375 189.960938 C 255.726562 190.59375 256.292969 191.285156 256.789062 192.027344 C 257.289062 192.773438 257.707031 193.5625 258.050781 194.390625 C 258.394531 195.21875 258.652344 196.070312 258.828125 196.949219 C 259 197.828125 259.089844 198.714844 259.089844 199.613281 Z M 259.089844 199.613281 "/><path style="fill:none;stroke-width:1;stroke-linecap:round;stroke-linejoin:round;stroke:rgb(0%,78.819275%,40.388489%);stroke-opacity:1;stroke-miterlimit:4;" d="M 0.499492 10.499775 L 14.499722 10.499775 M 0.499492 13.500004 L 14.499722 13.500004 M 0.499492 16.500232 L 14.499722 16.500232 M 0.499492 19.500461 L 7.499607 19.500461 " transform="matrix(3.408984,0,0,3.4125,231.816772,185.962488)"/><path style="fill:none;stroke-width:2;stroke-linecap:round;stroke-linejoin:round;stroke:rgb(0%,78.819275%,40.388489%);stroke-opacity:1;stroke-miterlimit:4;" d="M 14.499599 18.999773 L 0.500514 18.999773 M 14.499599 27.000002 L 4.499598 27.000002 M 14.499599 35.000231 L 8.499827 35.000231 " transform="matrix(3.408984,0,0,3.4125,3.414848,97.237494)"/><path style="fill:none;stroke-width:1;stroke-linecap:round;stroke-linejoin:miter;stroke:rgb(100%,8.628845%,8.628845%);stroke-opacity:1;stroke-miterlimit:4;" d="M 0.499649 0.000340038 L 13.01155 0.000340038 " transform="matrix(3.775156,0,0,3.75,231.769998,221.4831)"/><path style="fill:none;stroke-width:1;stroke-linecap:round;stroke-linejoin:miter;stroke:rgb(100%,8.628845%,8.628845%);stroke-opacity:1;stroke-miterlimit:4;" d="M 0.499649 0.000340216 L 13.01155 0.000340216 " transform="matrix(3.775156,0,0,3.75,231.769998,231.608099)"/><path style="fill:none;stroke-width:1;stroke-linecap:round;stroke-linejoin:miter;stroke:rgb(100%,8.628845%,8.628845%);stroke-opacity:1;stroke-miterlimit:4;" d="M 0.499649 0.0003404 L 13.01155 0.0003404 " transform="matrix(3.775156,0,0,3.75,231.769998,242.108099)"/><path style="fill:none;stroke-width:1;stroke-linecap:round;stroke-linejoin:miter;stroke:rgb(100%,8.628845%,8.628845%);stroke-opacity:1;stroke-miterlimit:4;" d="M 0.500509 0.000340577 L 6.910704 0.000340577 " transform="matrix(3.745255,0,0,3.75,231.769998,252.233098)"/><path style="fill:none;stroke-width:1;stroke-linecap:round;stroke-linejoin:miter;stroke:rgb(100%,8.628845%,8.628845%);stroke-opacity:1;stroke-miterlimit:4;" d="M 0.499806 -0.00018637 L 5.157529 -0.00018637 " transform="matrix(7.558011,0,0,7.5,13.659964,189.204523)"/><path style="fill:none;stroke-width:1;stroke-linecap:round;stroke-linejoin:miter;stroke:rgb(100%,8.628845%,8.628845%);stroke-opacity:1;stroke-miterlimit:4;" d="M 0.500099 0.000167577 L 6.978545 0.000167577 " transform="matrix(7.521938,0,0,7.5,0.0000045,161.858118)"/><path style=" stroke:none;fill-rule:nonzero;fill:rgb(100%,100%,100%);fill-opacity:1;" d="M 20.375 116.71875 L 28.4375 116.71875 L 28.4375 124.78125 L 20.375 124.78125 Z M 20.375 116.71875 "/><path style=" stroke:none;fill-rule:nonzero;fill:rgb(100%,100%,100%);fill-opacity:1;" d="M 28.34375 124.6875 L 28.53125 124.6875 L 28.53125 124.875 L 28.34375 124.875 Z M 20.28125 116.8125 L 20.46875 116.8125 L 20.46875 124.6875 L 20.28125 124.6875 Z M 20.28125 124.6875 L 20.46875 124.6875 L 20.46875 124.875 L 20.28125 124.875 Z M 28.34375 116.8125 L 28.53125 116.8125 L 28.53125 124.6875 L 28.34375 124.6875 Z M 20.46875 124.6875 L 28.34375 124.6875 L 28.34375 124.875 L 20.46875 124.875 Z M 28.34375 116.625 L 28.53125 116.625 L 28.53125 116.8125 L 28.34375 116.8125 Z M 20.28125 116.625 L 20.46875 116.625 L 20.46875 116.8125 L 20.28125 116.8125 Z M 20.46875 116.625 L 28.34375 116.625 L 28.34375 116.8125 L 20.46875 116.8125 Z M 20.46875 116.625 "/><path style="fill:none;stroke-width:1;stroke-linecap:round;stroke-linejoin:miter;stroke:rgb(100%,8.628845%,8.628845%);stroke-opacity:1;stroke-miterlimit:4;" d="M 0.499997 0.000169973 L 3.182687 0.000169973 " transform="matrix(7.5382,0,0,7.5,28.469206,216.2331)"/></g></svg>