<svg xmlns="http://www.w3.org/2000/svg" version="1.0" width="344" height="313" preserveAspectRatio="xMidYMid meet"><rect id="backgroundrect" width="100%" height="100%" x="0" y="0" fill="none" stroke="none"/>


<g class="currentLayer" style=""><title>Layer 1</title><g transform="translate(0,313) scale(0.10000000149011612,-0.10000000149011612) " fill="#3a4461" stroke="#ebeb1a" id="svg_1" class="" fill-opacity="1" stroke-opacity="1">
<path d="M1066 2873 l-68 -4 -294 -201 c-250 -171 -294 -205 -294 -226 0 -17 53 -87 171 -229 94 -112 178 -207 187 -210 9 -4 37 5 64 20 l48 27 0 -23 c-1 -32 -46 -336 -51 -341 -2 -2 -76 9 -164 25 -180 32 -208 34 -222 17 -6 -7 -20 -70 -32 -141 l-23 -127 -189 -351 c-133 -244 -188 -356 -184 -369 6 -20 46 -35 196 -75 47 -12 68 -23 75 -38 7 -17 36 -29 131 -57 84 -24 127 -42 140 -57 13 -16 61 -35 182 -68 153 -43 164 -45 181 -30 17 15 32 16 157 6 136 -12 173 -9 173 11 0 7 40 8 119 3 115 -6 120 -6 133 14 12 20 22 21 144 21 114 0 133 2 147 18 10 10 17 23 17 28 0 5 288 60 640 122 351 61 675 123 718 137 82 26 194 91 205 118 7 19 -18 178 -35 220 -27 68 -113 97 -427 143 -322 46 -367 57 -489 114 -119 57 -216 120 -290 190 -39 36 -61 50 -83 50 -35 0 -34 -3 -6 129 l23 105 34 -42 c23 -29 41 -42 58 -42 23 0 470 252 484 274 4 6 8 18 8 26 0 9 -93 146 -207 305 l-208 289 -145 59 c-139 56 -158 61 -450 113 -314 56 -346 58 -574 47z m263 -110 c7 -16 40 -95 72 -178 69 -173 101 -215 166 -215 54 0 78 20 214 171 66 74 124 135 129 137 9 3 178 -59 246 -90 14 -7 98 -115 196 -252 94 -133 175 -246 180 -252 5 -8 -40 -39 -139 -97 -82 -46 -165 -94 -185 -106 l-37 -22 -52 65 c-54 68 -84 82 -108 52 -7 -8 -29 -96 -50 -196 -22 -100 -41 -184 -45 -187 -3 -3 -65 -16 -138 -30 l-133 -24 -355 62 c-195 34 -358 64 -361 68 -4 3 9 114 28 246 l35 240 -22 17 c-24 19 -33 17 -112 -29 -31 -18 -60 -33 -65 -33 -9 0 -277 319 -272 324 2 1 117 80 255 174 280 191 243 176 450 180 90 2 91 2 103 -25z m290 -24 c130 -23 240 -45 244 -49 11 -10 -217 -262 -257 -283 -38 -20 -68 -13 -100 22 -17 18 -146 322 -146 343 0 12 1 12 259 -33z m-586 -1184 c265 -47 494 -88 508 -91 l26 -5 -3 -95 c-1 -53 -4 -97 -6 -98 -4 -4 -317 39 -473 64 -123 20 -596 118 -603 124 -1 2 5 45 14 95 14 77 19 91 36 91 10 0 235 -38 501 -85z m1046 -69 l32 -33 -28 -21 c-37 -27 -22 -40 22 -19 34 16 37 16 70 -6 19 -12 35 -25 35 -29 0 -4 -13 -16 -30 -28 -31 -22 -39 -40 -18 -40 6 0 26 11 44 25 l34 26 39 -21 c53 -27 56 -35 21 -60 -16 -12 -30 -28 -30 -36 0 -20 7 -18 50 16 21 17 43 30 49 30 10 0 69 -27 80 -36 2 -2 -6 -19 -18 -38 -29 -47 -10 -55 26 -10 l28 35 50 -12 c63 -16 61 -14 41 -43 -19 -31 -21 -46 -3 -46 7 0 21 16 30 36 13 25 22 34 35 30 9 -3 38 -8 63 -11 l47 -7 -10 -34 c-9 -34 -4 -59 12 -49 4 3 11 21 14 40 5 26 12 35 26 35 19 0 173 -21 177 -24 1 -1 -7 -30 -17 -65 -11 -34 -20 -76 -20 -92 0 -16 -3 -29 -7 -29 -5 0 -273 -47 -598 -105 -324 -57 -591 -102 -594 -100 -8 8 -49 224 -60 312 -12 97 -17 360 -7 370 4 5 331 68 372 72 5 1 25 -14 43 -33z m-1526 -77 c20 -5 37 -14 37 -18 0 -11 -228 -663 -234 -668 -4 -4 -216 53 -223 61 -4 4 208 403 309 584 32 56 42 60 111 41z m172 -38 c44 -10 79 -22 79 -27 -2 -12 -187 -728 -189 -731 -5 -8 -227 62 -231 72 -7 18 237 705 250 705 6 0 47 -9 91 -19z m289 -62 c7 -7 -120 -744 -134 -777 -5 -12 -16 -22 -25 -22 -33 0 -208 55 -212 67 -4 10 181 745 192 764 5 6 170 -23 179 -32z m166 -23 c46 -9 55 -14 53 -31 -1 -11 -16 -184 -34 -384 l-33 -363 -126 7 c-69 4 -126 8 -127 9 -1 1 118 684 137 783 0 2 60 -7 130 -21z m227 -33 c10 -4 13 -76 13 -369 l0 -364 -42 5 c-24 3 -73 7 -110 11 -61 5 -68 8 -68 27 0 12 14 166 30 342 16 176 30 331 30 344 0 23 1 23 67 16 36 -4 72 -9 80 -12z m151 -19 c2 -1 13 -71 23 -156 20 -157 54 -322 89 -438 11 -36 20 -68 20 -72 0 -5 -54 -8 -120 -8 l-120 0 0 345 0 346 53 -7 c28 -4 54 -8 55 -10z m1528 -94 c71 -13 144 -38 144 -51 0 -16 -154 -81 -244 -103 l-29 -7 6 49 c6 55 35 122 52 122 6 0 38 -5 71 -10z m177 -93 c3 -8 8 -38 12 -69 l7 -54 -64 -31 c-34 -17 -81 -36 -103 -42 -22 -6 -321 -61 -665 -121 -344 -61 -637 -113 -651 -116 -25 -5 -27 -1 -43 56 -10 34 -16 63 -14 64 2 1 280 51 618 110 616 108 737 136 840 191 53 28 56 29 63 12z" id="svg_2" fill="#3a4461" fill-opacity="1" stroke="#ebeb1a" stroke-opacity="1"/>
<path d="M1419 2216 c-88 -31 -159 -126 -159 -211 0 -24 11 -62 25 -92 72 -143 266 -177 380 -66 98 95 97 221 -1 317 -61 59 -164 81 -245 52z" id="svg_3" fill="#3a4461" fill-opacity="1" stroke="#ebeb1a" stroke-opacity="1"/>
<path d="M1875 1195 c-108 -38 -136 -178 -50 -254 42 -36 72 -45 127 -38 51 7 88 33 110 78 64 124 -55 260 -187 214z m105 -30 c68 -35 91 -116 50 -182 -21 -36 -43 -50 -80 -53 -53 -5 -71 1 -106 33 -65 59 -51 161 26 199 43 22 72 23 110 3z" id="svg_4" fill="#3a4461" fill-opacity="1" stroke="#ebeb1a" stroke-opacity="1"/>
</g><path fill="none" fill-opacity="1" stroke="#ebeb1a" stroke-opacity="1" stroke-width="1" stroke-dasharray="none" stroke-linejoin="miter" stroke-linecap="butt" stroke-dashoffset="" fill-rule="nonzero" opacity="1" marker-start="" marker-mid="" marker-end="" id="svg_15" d="M154.1621667737939,105.07027155553622 " style="color: rgb(58, 68, 97);"/><path fill="#e84141" fill-opacity="1" stroke="#e84141" stroke-opacity="1" stroke-width="1" stroke-dasharray="none" stroke-linejoin="miter" stroke-linecap="butt" stroke-dashoffset="" fill-rule="nonzero" opacity="1" marker-start="" marker-mid="" marker-end="" d="M125.13513123001655,113.39038943424205 C125.13513123001655,100.70477638174484 136.01455474807656,90.42942980922211 149.44594180740984,90.42942980922211 C162.87732886674314,90.42942980922211 173.75675238480312,100.70477638174484 173.75675238480312,113.39038943424205 C173.75675238480312,126.07600248673924 162.87732886674314,136.35134905926196 149.44594180740984,136.35134905926196 C136.01455474807656,136.35134905926196 125.13513123001655,126.07600248673924 125.13513123001655,113.39038943424205 z" id="svg_5" class=""/></g></svg>