<?xml version="1.0" encoding="UTF-8"?><svg xmlns="http://www.w3.org/2000/svg" xmlns:xlink="http://www.w3.org/1999/xlink" width="30pt" zoomAndPan="magnify" viewBox="0 0 30 30.000001" height="30.000001pt" preserveAspectRatio="xMidYMid meet" version="1.2"><defs><clipPath xml:id="clip1" id="clip1"><path d="M 3 5 L 29.515625 5 L 29.515625 25 L 3 25 Z M 3 5 "/></clipPath><filter x="0%" y="0%" width="100%" xmlns:xlink="http://www.w3.org/1999/xlink" xlink:type="simple" filterUnits="objectBoundingBox" xlink:actuate="onLoad" id="alpha" height="100%" xlink:show="other" xml:id="alpha"><feColorMatrix values="0 0 0 0 1 0 0 0 0 1 0 0 0 0 1 0 0 0 1 0" type="matrix" in="SourceGraphic"/></filter><clipPath xml:id="clip3" id="clip3"><path d="M 0.0078125 1 L 10 1 L 10 10 L 0.0078125 10 Z M 0.0078125 1 "/></clipPath><clipPath xml:id="clip2" id="clip2"><rect x="0" width="11" y="0" height="11"/></clipPath><clipPath xml:id="clip4" id="clip4"><path d="M 0.484375 4 L 6 4 L 6 10 L 0.484375 10 Z M 0.484375 4 "/></clipPath></defs><g xml:id="surface1" id="surface1"><g clip-rule="nonzero" clip-path="url(#clip1)"><path style="fill:none;stroke-width:4;stroke-linecap:round;stroke-linejoin:round;stroke:rgb(22.749329%,26.669312%,38.038635%);stroke-opacity:1;stroke-miterlimit:4;" d="M 18.727076 62.219856 L 18.725851 25.999036 C 18.717283 22.126505 21.867375 19.008277 25.71596 19.003766 L 83.283387 18.99872 C 87.146549 18.996779 90.276642 22.129379 90.270633 25.999339 L 90.271857 62.220159 L 100.993864 69.606069 L 101.001032 73.827504 C 100.99403 76.680198 98.690019 79.006423 95.834682 79.003906 L 13.167884 79.000772 C 10.312546 78.998255 8.00117 76.677957 8.008173 73.825264 L 8.001004 69.603829 Z M 18.727076 62.219856 " transform="matrix(0.259889,-0.0453726,0.0458255,0.257321,-1.081509,4.628299)"/></g><path style=" stroke:none;fill-rule:nonzero;fill:rgb(22.749329%,26.669312%,38.038635%);fill-opacity:1;" d="M 6.613281 22.121094 L 25.960938 18.746094 C 26.03125 18.734375 26.082031 18.664062 26.066406 18.59375 C 26.054688 18.523438 25.988281 18.476562 25.914062 18.488281 L 6.566406 21.867188 C 6.496094 21.878906 6.445312 21.945312 6.460938 22.015625 C 6.472656 22.089844 6.539062 22.136719 6.613281 22.121094 Z M 6.613281 22.121094 "/><path style=" stroke:none;fill-rule:nonzero;fill:rgb(22.749329%,26.669312%,38.038635%);fill-opacity:1;" d="M 6.691406 20.074219 L 25.367188 16.839844 L 25.320312 16.582031 L 6.648438 19.816406 Z M 6.691406 20.074219 "/><path style=" stroke:none;fill-rule:evenodd;fill:rgb(100%,8.628845%,8.628845%);fill-opacity:1;" d="M 14.824219 11.382812 C 15.085938 11.339844 15.34375 11.34375 15.605469 11.402344 C 15.863281 11.457031 16.101562 11.5625 16.320312 11.710938 C 16.535156 11.863281 16.714844 12.050781 16.859375 12.269531 C 17 12.492188 17.09375 12.734375 17.140625 12.992188 C 17.1875 13.25 17.183594 13.507812 17.125 13.765625 C 17.066406 14.019531 16.960938 14.257812 16.808594 14.472656 C 16.65625 14.6875 16.46875 14.867188 16.246094 15.007812 C 16.023438 15.148438 15.777344 15.242188 15.519531 15.289062 C 15.257812 15.332031 14.996094 15.328125 14.738281 15.269531 C 14.476562 15.214844 14.238281 15.109375 14.023438 14.960938 C 13.804688 14.808594 13.625 14.621094 13.480469 14.402344 C 13.339844 14.179688 13.246094 13.9375 13.199219 13.679688 C 13.152344 13.421875 13.160156 13.164062 13.214844 12.90625 C 13.273438 12.648438 13.378906 12.414062 13.53125 12.199219 C 13.683594 11.984375 13.871094 11.804688 14.09375 11.664062 C 14.320312 11.523438 14.5625 11.429688 14.824219 11.382812 Z M 14.824219 11.382812 "/><g mask="url(#mask0)" transform="matrix(1,0,0,1,10,8)"><g xml:id="surface5" id="surface5" clip-path="url(#clip2)"><g clip-rule="nonzero" clip-path="url(#clip3)"><path style="fill:none;stroke-width:1;stroke-linecap:round;stroke-linejoin:round;stroke:rgb(0%,78.819275%,40.388489%);stroke-opacity:1;stroke-miterlimit:4;" d="M 54.698219 27.848515 C 55.706044 27.844056 56.710274 27.945227 57.713505 28.137304 C 58.714141 28.344104 59.684622 28.63667 60.624951 29.015002 C 61.562683 29.408056 62.455685 29.884307 63.301361 30.458475 C 64.149632 31.017921 64.938596 31.657992 65.653675 32.376118 C 66.368754 33.094244 67.009948 33.890425 67.582449 34.735216 C 68.154951 35.580006 68.629604 36.468266 69.018392 37.417287 C 69.409776 38.351585 69.703313 39.329352 69.904194 40.321143 C 70.087902 41.325086 70.196128 42.330899 70.197122 43.348166 C 70.198115 44.365433 70.097068 45.364707 69.888789 46.375434 C 69.697683 47.374009 69.407132 48.339869 69.017137 49.273013 C 68.624546 50.220881 68.15228 51.109158 67.58057 51.964719 C 67.011455 52.805558 66.377243 53.589377 65.648778 54.311036 C 64.937486 55.020542 64.146519 55.670457 63.310223 56.236478 C 62.459351 56.799928 61.563149 57.279484 60.624215 57.660421 C 59.682684 58.056081 58.712998 58.355694 57.717753 58.544537 C 56.719912 58.748102 55.711088 58.843468 54.688686 58.845356 C 53.680861 58.849815 52.662054 58.746075 51.6734 58.556568 C 50.672765 58.349768 49.702283 58.057202 48.76455 57.664147 C 47.824222 57.285816 46.933816 56.794843 46.085544 56.235397 C 45.237273 55.675951 44.450905 55.021157 43.735826 54.303031 C 43.00617 53.582334 42.36238 52.800876 41.804456 51.958656 C 41.231955 51.113866 40.759897 50.210884 40.368513 49.276585 C 39.977129 48.342287 39.683592 47.36452 39.482711 46.372729 C 39.284426 45.366216 39.190777 44.362973 39.189784 43.345706 C 39.18879 42.328439 39.292433 41.314442 39.483539 40.315867 C 39.689222 39.319863 39.979773 38.354003 40.372364 37.406136 C 40.762359 36.472991 41.234625 35.584714 41.806335 34.729153 C 42.360873 33.885743 43.009663 33.104495 43.72355 32.380266 C 44.452015 31.658608 45.225809 31.020844 46.076682 30.457394 C 46.927555 29.893944 47.823756 29.414388 48.765287 29.018728 C 49.704221 28.637791 50.673907 28.338178 51.671748 28.134612 C 52.666994 27.94577 53.678413 27.835681 54.698219 27.848515 Z M 54.698219 27.848515 " transform="matrix(0.259889,-0.0453726,0.0458255,0.257321,-11.081508,-3.371701)"/></g></g><mask xml:id="mask0" id="mask0"><g filter="url(#alpha)"><rect x="0" width="30" y="0" height="30.000001" style="fill:rgb(0%,0%,0%);fill-opacity:0.2;stroke:none;"/></g></mask></g><path style=" stroke:none;fill-rule:evenodd;fill:rgb(100%,100%,100%);fill-opacity:1;" d="M 19.933594 16.902344 L 20.945312 16.179688 C 21.300781 15.929688 21.257812 15.589844 20.855469 15.429688 L 15.941406 13.480469 C 15.269531 13.214844 15.03125 13.492188 15.414062 14.105469 L 18.203125 18.554688 C 18.433594 18.921875 18.777344 18.90625 18.964844 18.515625 L 19.507812 17.402344 L 21.660156 19.1875 C 21.800781 19.308594 22.007812 19.289062 22.125 19.152344 C 22.242188 19.011719 22.222656 18.804688 22.082031 18.6875 Z M 19.933594 16.902344 "/><path style="fill:none;stroke-width:2;stroke-linecap:round;stroke-linejoin:round;stroke:rgb(22.749329%,26.669312%,38.038635%);stroke-opacity:1;stroke-miterlimit:4;" d="M 71.859443 60.430879 L 77.871212 67.593466 C 78.663969 68.552996 78.548542 69.974788 77.595228 70.778243 C 76.644511 71.566975 75.221735 71.452726 74.428978 70.493196 L 68.402631 63.328039 L 66.392959 66.116037 C 64.976364 68.097783 62.696129 67.817159 61.786162 65.561803 L 54.337493 46.942664 C 52.946483 43.494312 55.010266 41.763308 58.167922 43.716691 L 75.210634 54.296836 C 77.28259 55.588187 77.150386 57.872307 74.964996 58.929109 Z M 71.859443 60.430879 " transform="matrix(0.259889,-0.0453726,0.0458255,0.257321,-1.081509,4.628299)"/><g clip-rule="nonzero" clip-path="url(#clip4)"><path style=" stroke:none;fill-rule:nonzero;fill:rgb(100%,8.628845%,8.628845%);fill-opacity:1;" d="M 4 7.800781 C 4.113281 7.890625 4.125 8.058594 4.03125 8.167969 C 3.9375 8.277344 3.773438 8.292969 3.660156 8.199219 L 1.839844 6.6875 C 1.730469 6.59375 1.714844 6.429688 1.808594 6.320312 C 1.902344 6.210938 2.070312 6.195312 2.179688 6.289062 Z M 5.222656 7.007812 C 5.253906 7.148438 5.167969 7.289062 5.027344 7.320312 C 4.882812 7.355469 4.742188 7.265625 4.707031 7.125 L 4.230469 5.105469 C 4.199219 4.964844 4.285156 4.824219 4.429688 4.789062 C 4.570312 4.757812 4.710938 4.84375 4.746094 4.984375 Z M 3.113281 9.007812 C 3.261719 9.015625 3.371094 9.140625 3.363281 9.285156 C 3.355469 9.425781 3.230469 9.539062 3.085938 9.527344 L 1.035156 9.410156 C 0.890625 9.402344 0.78125 9.28125 0.789062 9.136719 C 0.796875 8.992188 0.921875 8.882812 1.066406 8.890625 Z M 3.113281 9.007812 "/></g></g></svg>