<?xml version="1.0" encoding="UTF-8"?><svg xmlns="http://www.w3.org/2000/svg" xmlns:xlink="http://www.w3.org/1999/xlink" width="96pt" zoomAndPan="magnify" viewBox="0 0 96 30.000001" height="30.000001pt" preserveAspectRatio="xMidYMid meet" version="1.2"><defs><g/><clipPath xml:id="clip1" id="clip1"><path d="M 85 1.226562 L 89 1.226562 L 89 4 L 85 4 Z M 85 1.226562 "/></clipPath><clipPath xml:id="clip2" id="clip2"><path d="M 83 3 L 90.289062 3 L 90.289062 14 L 83 14 Z M 83 3 "/></clipPath><clipPath xml:id="clip3" id="clip3"><path d="M 73.59375 14 L 89 14 L 89 28.082031 L 73.59375 28.082031 Z M 73.59375 14 "/></clipPath></defs><g xml:id="surface1" id="surface1"><g clip-rule="nonzero" clip-path="url(#clip1)"><path style=" stroke:none;fill-rule:nonzero;fill:rgb(100%,100%,100%);fill-opacity:1;" d="M 88.542969 3.210938 C 87.878906 2.007812 87.054688 1.230469 87.054688 1.230469 C 87.054688 1.230469 86.234375 2.007812 85.570312 3.210938 C 85.984375 3.519531 86.496094 3.703125 87.054688 3.703125 C 87.613281 3.703125 88.128906 3.519531 88.542969 3.210938 "/></g><path style=" stroke:none;fill-rule:nonzero;fill:rgb(100%,100%,100%);fill-opacity:1;" d="M 88.175781 14.15625 L 88.179688 14.136719 L 88.179688 14.121094 C 88.234375 13.859375 88.234375 13.621094 88.109375 13.355469 C 87.929688 12.953125 87.523438 12.671875 87.050781 12.671875 C 86.414062 12.671875 85.898438 13.1875 85.898438 13.820312 C 85.898438 13.828125 85.898438 13.839844 85.898438 13.851562 C 85.898438 13.996094 85.917969 14.15625 85.933594 14.242188 C 85.96875 14.417969 85.960938 14.574219 85.917969 14.75 C 85.988281 14.710938 86.039062 14.648438 86.070312 14.570312 C 86.132812 14.761719 86.164062 14.953125 86.0625 15.175781 C 86.074219 15.148438 86.296875 15.109375 86.335938 15.089844 C 86.425781 15.039062 86.476562 14.972656 86.496094 14.875 C 86.621094 15.003906 86.574219 15.265625 86.613281 15.429688 C 86.734375 15.941406 87.105469 16.347656 87.214844 16.859375 C 87.175781 16.578125 87.152344 16.347656 87.214844 16.058594 C 87.285156 15.753906 87.417969 15.457031 87.546875 15.171875 C 87.585938 15.082031 87.644531 15.007812 87.703125 14.9375 C 87.707031 14.984375 87.71875 15.03125 87.730469 15.078125 C 87.753906 15.15625 87.78125 15.238281 87.835938 15.296875 C 87.875 15.339844 88.003906 15.390625 88.019531 15.445312 C 88 15.367188 87.957031 15.296875 87.941406 15.21875 C 87.925781 15.125 87.941406 15.019531 87.964844 14.929688 C 88.039062 14.632812 88.125 14.382812 88.175781 14.15625 "/><g clip-rule="nonzero" clip-path="url(#clip2)"><path style=" stroke:none;fill-rule:nonzero;fill:rgb(100%,100%,100%);fill-opacity:1;" d="M 90.265625 13.191406 L 89.621094 10.125 C 89.613281 10.109375 89.601562 10.089844 89.585938 10.078125 L 88.902344 9.625 C 89.164062 8.308594 89.378906 6.878906 89.378906 6.140625 C 89.378906 5.089844 89.027344 4.117188 88.601562 3.320312 C 88.175781 3.65625 87.640625 3.855469 87.054688 3.855469 C 86.472656 3.855469 85.933594 3.65625 85.507812 3.320312 C 85.082031 4.117188 84.734375 5.089844 84.734375 6.140625 C 84.734375 6.878906 84.945312 8.308594 85.210938 9.625 L 84.527344 10.078125 C 84.511719 10.089844 84.496094 10.109375 84.492188 10.125 L 83.847656 13.191406 C 83.832031 13.226562 83.84375 13.265625 83.871094 13.292969 C 83.890625 13.3125 83.914062 13.324219 83.941406 13.324219 C 83.953125 13.324219 83.964844 13.320312 83.976562 13.316406 L 85.695312 11.652344 C 85.78125 11.929688 85.859375 12.15625 85.933594 12.300781 L 88.179688 12.300781 C 88.25 12.15625 88.332031 11.929688 88.414062 11.652344 L 90.136719 13.316406 C 90.148438 13.320312 90.160156 13.324219 90.171875 13.324219 C 90.199219 13.324219 90.222656 13.3125 90.242188 13.292969 C 90.269531 13.265625 90.277344 13.226562 90.265625 13.191406 "/></g><g clip-rule="nonzero" clip-path="url(#clip3)"><path style=" stroke:none;fill-rule:nonzero;fill:rgb(100%,100%,100%);fill-opacity:1;" d="M 87.824219 15.5625 C 87.816406 15.554688 87.800781 15.546875 87.789062 15.542969 C 87.75 15.515625 87.707031 15.488281 87.667969 15.449219 C 87.578125 15.660156 87.488281 15.882812 87.4375 16.105469 C 87.382812 16.355469 87.402344 16.5625 87.4375 16.796875 C 87.441406 16.816406 87.445312 16.835938 87.445312 16.859375 C 87.445312 16.980469 87.34375 17.082031 87.222656 17.082031 L 87.214844 17.082031 C 87.113281 17.082031 87.019531 17.011719 86.996094 16.90625 C 86.945312 16.679688 86.832031 16.464844 86.710938 16.238281 C 86.585938 16.003906 86.457031 15.761719 86.390625 15.480469 C 86.378906 15.429688 86.371094 15.371094 86.371094 15.316406 C 86.34375 15.324219 86.3125 15.332031 86.273438 15.339844 C 86.25 15.347656 86.207031 15.355469 86.183594 15.363281 C 86.121094 15.402344 86.039062 15.410156 85.964844 15.378906 C 85.851562 15.328125 85.804688 15.195312 85.855469 15.082031 C 85.871094 15.042969 85.882812 15.007812 85.890625 14.972656 C 85.863281 14.96875 85.832031 14.957031 85.808594 14.945312 C 85.796875 15.136719 85.785156 15.332031 85.769531 15.527344 C 85.699219 16.433594 85.570312 17.332031 85.367188 18.210938 C 84.96875 19.976562 84.28125 21.679688 83.234375 23.171875 C 82.195312 24.664062 80.792969 25.929688 79.117188 26.765625 C 78.28125 27.179688 77.382812 27.488281 76.453125 27.667969 C 75.519531 27.84375 74.558594 27.914062 73.59375 27.800781 C 74.0625 27.917969 74.542969 28 75.03125 28.042969 C 75.519531 28.085938 76.011719 28.078125 76.503906 28.039062 C 77.484375 27.964844 78.460938 27.753906 79.398438 27.414062 C 81.277344 26.734375 82.980469 25.535156 84.320312 24.019531 C 85.667969 22.5 86.660156 20.683594 87.332031 18.777344 C 87.699219 17.746094 87.972656 16.683594 88.171875 15.609375 C 88.144531 15.632812 88.109375 15.652344 88.070312 15.660156 C 87.972656 15.6875 87.875 15.644531 87.824219 15.5625 "/></g><path style=" stroke:none;fill-rule:nonzero;fill:rgb(100%,100%,100%);fill-opacity:1;" d="M 88.183594 14.980469 C 88.164062 15.066406 88.15625 15.132812 88.164062 15.179688 C 88.167969 15.199219 88.179688 15.226562 88.191406 15.257812 C 88.203125 15.28125 88.210938 15.304688 88.21875 15.332031 C 88.28125 14.976562 88.335938 14.617188 88.382812 14.257812 C 88.355469 14.367188 88.324219 14.480469 88.289062 14.601562 C 88.253906 14.722656 88.21875 14.847656 88.183594 14.980469 "/><g style="fill:rgb(100%,100%,100%);fill-opacity:1;"><g transform="translate(4.451611, 17.530832)"><path style="stroke:none;" d="M 0.515625 0 L 0.515625 -5.953125 L 2.859375 -5.953125 C 3.535156 -5.953125 4.0625 -5.773438 4.4375 -5.421875 C 4.8125 -5.066406 5 -4.597656 5 -4.015625 C 5 -3.609375 4.90625 -3.257812 4.71875 -2.96875 C 4.539062 -2.675781 4.285156 -2.457031 3.953125 -2.3125 L 5.21875 0 L 3.828125 0 L 2.6875 -2.109375 L 1.78125 -2.109375 L 1.78125 0 Z M 1.78125 -3.125 L 2.625 -3.125 C 3.34375 -3.125 3.703125 -3.421875 3.703125 -4.015625 C 3.703125 -4.617188 3.34375 -4.921875 2.625 -4.921875 L 1.78125 -4.921875 Z M 1.78125 -3.125 "/></g></g><g style="fill:rgb(100%,100%,100%);fill-opacity:1;"><g transform="translate(9.824155, 17.530832)"><path style="stroke:none;" d="M 5.984375 -2.984375 C 5.984375 -2.328125 5.859375 -1.769531 5.609375 -1.3125 C 5.367188 -0.863281 5.035156 -0.519531 4.609375 -0.28125 C 4.191406 -0.0390625 3.722656 0.078125 3.203125 0.078125 C 2.671875 0.078125 2.191406 -0.0390625 1.765625 -0.28125 C 1.347656 -0.519531 1.015625 -0.867188 0.765625 -1.328125 C 0.523438 -1.785156 0.40625 -2.335938 0.40625 -2.984375 C 0.40625 -3.628906 0.523438 -4.175781 0.765625 -4.625 C 1.015625 -5.082031 1.347656 -5.429688 1.765625 -5.671875 C 2.191406 -5.910156 2.671875 -6.03125 3.203125 -6.03125 C 3.722656 -6.03125 4.191406 -5.910156 4.609375 -5.671875 C 5.035156 -5.429688 5.367188 -5.082031 5.609375 -4.625 C 5.859375 -4.175781 5.984375 -3.628906 5.984375 -2.984375 Z M 4.71875 -2.984375 C 4.71875 -3.609375 4.578125 -4.085938 4.296875 -4.421875 C 4.023438 -4.753906 3.660156 -4.921875 3.203125 -4.921875 C 2.742188 -4.921875 2.375 -4.753906 2.09375 -4.421875 C 1.820312 -4.085938 1.6875 -3.609375 1.6875 -2.984375 C 1.6875 -2.347656 1.820312 -1.863281 2.09375 -1.53125 C 2.375 -1.195312 2.742188 -1.03125 3.203125 -1.03125 C 3.660156 -1.03125 4.023438 -1.195312 4.296875 -1.53125 C 4.578125 -1.863281 4.71875 -2.347656 4.71875 -2.984375 Z M 4.71875 -2.984375 "/></g></g><g style="fill:rgb(100%,100%,100%);fill-opacity:1;"><g transform="translate(16.225854, 17.530832)"><path style="stroke:none;" d="M 5.765625 -3.875 L 4.5 -3.875 C 4.445312 -4.195312 4.304688 -4.453125 4.078125 -4.640625 C 3.847656 -4.828125 3.5625 -4.921875 3.21875 -4.921875 C 2.757812 -4.921875 2.390625 -4.75 2.109375 -4.40625 C 1.828125 -4.070312 1.6875 -3.597656 1.6875 -2.984375 C 1.6875 -2.347656 1.828125 -1.863281 2.109375 -1.53125 C 2.390625 -1.195312 2.753906 -1.03125 3.203125 -1.03125 C 3.535156 -1.03125 3.816406 -1.117188 4.046875 -1.296875 C 4.285156 -1.472656 4.4375 -1.71875 4.5 -2.03125 L 5.765625 -2.03125 C 5.722656 -1.664062 5.59375 -1.320312 5.375 -1 C 5.164062 -0.675781 4.875 -0.414062 4.5 -0.21875 C 4.132812 -0.0195312 3.695312 0.078125 3.1875 0.078125 C 2.65625 0.078125 2.179688 -0.0390625 1.765625 -0.28125 C 1.347656 -0.519531 1.015625 -0.863281 0.765625 -1.3125 C 0.523438 -1.769531 0.40625 -2.328125 0.40625 -2.984375 C 0.40625 -3.628906 0.523438 -4.175781 0.765625 -4.625 C 1.015625 -5.082031 1.347656 -5.429688 1.765625 -5.671875 C 2.191406 -5.910156 2.664062 -6.03125 3.1875 -6.03125 C 3.644531 -6.03125 4.054688 -5.945312 4.421875 -5.78125 C 4.796875 -5.613281 5.097656 -5.367188 5.328125 -5.046875 C 5.566406 -4.722656 5.710938 -4.332031 5.765625 -3.875 Z M 5.765625 -3.875 "/></g></g><g style="fill:rgb(100%,100%,100%);fill-opacity:1;"><g transform="translate(22.38335, 17.530832)"><path style="stroke:none;" d="M 0.515625 0 L 0.515625 -5.953125 L 1.78125 -5.953125 L 1.78125 -3.328125 L 1.859375 -3.328125 L 4 -5.953125 L 5.5 -5.953125 L 3.296875 -3.28125 L 5.53125 0 L 4.03125 0 L 2.390625 -2.453125 L 1.78125 -1.6875 L 1.78125 0 Z M 0.515625 0 "/></g></g><g style="fill:rgb(100%,100%,100%);fill-opacity:1;"><g transform="translate(28.029172, 17.530832)"><path style="stroke:none;" d="M 0.515625 0 L 0.515625 -5.953125 L 4.53125 -5.953125 L 4.53125 -4.921875 L 1.78125 -4.921875 L 1.78125 -3.5 L 4.328125 -3.5 L 4.328125 -2.453125 L 1.78125 -2.453125 L 1.78125 -1.03125 L 4.546875 -1.03125 L 4.546875 0 Z M 0.515625 0 "/></g></g><g style="fill:rgb(100%,100%,100%);fill-opacity:1;"><g transform="translate(33.044124, 17.530832)"><path style="stroke:none;" d="M 0.296875 -4.921875 L 0.296875 -5.953125 L 5.1875 -5.953125 L 5.1875 -4.921875 L 3.359375 -4.921875 L 3.359375 0 L 2.109375 0 L 2.109375 -4.921875 Z M 0.296875 -4.921875 "/></g></g><g style="fill:rgb(100%,100%,100%);fill-opacity:1;"><g transform="translate(38.515513, 17.530832)"><path style="stroke:none;" d=""/></g></g><g style="fill:rgb(100%,100%,100%);fill-opacity:1;"><g transform="translate(40.413923, 17.530832)"><path style="stroke:none;" d="M 0.515625 0 L 0.515625 -5.953125 L 4.53125 -5.953125 L 4.53125 -4.921875 L 1.78125 -4.921875 L 1.78125 -3.5 L 4.328125 -3.5 L 4.328125 -2.453125 L 1.78125 -2.453125 L 1.78125 -1.03125 L 4.546875 -1.03125 L 4.546875 0 Z M 0.515625 0 "/></g></g><g style="fill:rgb(100%,100%,100%);fill-opacity:1;"><g transform="translate(45.428875, 17.530832)"><path style="stroke:none;" d="M 1.703125 -5.953125 L 2.90625 -3.921875 L 2.9375 -3.921875 L 4.15625 -5.953125 L 5.578125 -5.953125 L 3.75 -2.984375 L 5.609375 0 L 4.171875 0 L 2.9375 -2.03125 L 2.90625 -2.03125 L 1.671875 0 L 0.234375 0 L 2.09375 -2.984375 L 0.265625 -5.953125 Z M 1.703125 -5.953125 "/></g></g><g style="fill:rgb(100%,100%,100%);fill-opacity:1;"><g transform="translate(51.278197, 17.530832)"><path style="stroke:none;" d="M 0.515625 0 L 0.515625 -5.953125 L 2.859375 -5.953125 C 3.316406 -5.953125 3.703125 -5.863281 4.015625 -5.6875 C 4.335938 -5.519531 4.582031 -5.285156 4.75 -4.984375 C 4.914062 -4.679688 5 -4.332031 5 -3.9375 C 5 -3.539062 4.910156 -3.191406 4.734375 -2.890625 C 4.566406 -2.585938 4.320312 -2.351562 4 -2.1875 C 3.675781 -2.019531 3.285156 -1.9375 2.828125 -1.9375 L 1.78125 -1.9375 L 1.78125 0 Z M 1.78125 -2.9375 L 2.625 -2.9375 C 2.988281 -2.9375 3.257812 -3.03125 3.4375 -3.21875 C 3.613281 -3.40625 3.703125 -3.644531 3.703125 -3.9375 C 3.703125 -4.226562 3.613281 -4.460938 3.4375 -4.640625 C 3.257812 -4.828125 2.988281 -4.921875 2.625 -4.921875 L 1.78125 -4.921875 Z M 1.78125 -2.9375 "/></g></g><g style="fill:rgb(100%,100%,100%);fill-opacity:1;"><g transform="translate(56.580971, 17.530832)"><path style="stroke:none;" d="M 0.515625 0 L 0.515625 -5.953125 L 2.859375 -5.953125 C 3.535156 -5.953125 4.0625 -5.773438 4.4375 -5.421875 C 4.8125 -5.066406 5 -4.597656 5 -4.015625 C 5 -3.609375 4.90625 -3.257812 4.71875 -2.96875 C 4.539062 -2.675781 4.285156 -2.457031 3.953125 -2.3125 L 5.21875 0 L 3.828125 0 L 2.6875 -2.109375 L 1.78125 -2.109375 L 1.78125 0 Z M 1.78125 -3.125 L 2.625 -3.125 C 3.34375 -3.125 3.703125 -3.421875 3.703125 -4.015625 C 3.703125 -4.617188 3.34375 -4.921875 2.625 -4.921875 L 1.78125 -4.921875 Z M 1.78125 -3.125 "/></g></g><g style="fill:rgb(100%,100%,100%);fill-opacity:1;"><g transform="translate(61.953514, 17.530832)"><path style="stroke:none;" d="M 0.515625 0 L 0.515625 -5.953125 L 4.53125 -5.953125 L 4.53125 -4.921875 L 1.78125 -4.921875 L 1.78125 -3.5 L 4.328125 -3.5 L 4.328125 -2.453125 L 1.78125 -2.453125 L 1.78125 -1.03125 L 4.546875 -1.03125 L 4.546875 0 Z M 0.515625 0 "/></g></g><g style="fill:rgb(100%,100%,100%);fill-opacity:1;"><g transform="translate(66.968466, 17.530832)"><path style="stroke:none;" d="M 3.75 -4.234375 C 3.726562 -4.472656 3.628906 -4.65625 3.453125 -4.78125 C 3.273438 -4.914062 3.035156 -4.984375 2.734375 -4.984375 C 2.421875 -4.984375 2.179688 -4.921875 2.015625 -4.796875 C 1.859375 -4.671875 1.78125 -4.507812 1.78125 -4.3125 C 1.769531 -4.101562 1.859375 -3.941406 2.046875 -3.828125 C 2.234375 -3.722656 2.457031 -3.640625 2.71875 -3.578125 L 3.25 -3.453125 C 3.59375 -3.367188 3.898438 -3.253906 4.171875 -3.109375 C 4.441406 -2.960938 4.648438 -2.773438 4.796875 -2.546875 C 4.953125 -2.316406 5.03125 -2.035156 5.03125 -1.703125 C 5.03125 -1.160156 4.828125 -0.726562 4.421875 -0.40625 C 4.015625 -0.0820312 3.445312 0.078125 2.71875 0.078125 C 2 0.078125 1.421875 -0.0820312 0.984375 -0.40625 C 0.554688 -0.738281 0.335938 -1.226562 0.328125 -1.875 L 1.546875 -1.875 C 1.566406 -1.570312 1.679688 -1.34375 1.890625 -1.1875 C 2.109375 -1.039062 2.378906 -0.96875 2.703125 -0.96875 C 3.023438 -0.96875 3.28125 -1.035156 3.46875 -1.171875 C 3.664062 -1.304688 3.765625 -1.484375 3.765625 -1.703125 C 3.765625 -1.898438 3.675781 -2.050781 3.5 -2.15625 C 3.320312 -2.269531 3.070312 -2.367188 2.75 -2.453125 L 2.109375 -2.609375 C 1.609375 -2.734375 1.210938 -2.925781 0.921875 -3.1875 C 0.628906 -3.445312 0.484375 -3.796875 0.484375 -4.234375 C 0.484375 -4.597656 0.578125 -4.910156 0.765625 -5.171875 C 0.960938 -5.441406 1.234375 -5.648438 1.578125 -5.796875 C 1.921875 -5.953125 2.304688 -6.03125 2.734375 -6.03125 C 3.179688 -6.03125 3.566406 -5.953125 3.890625 -5.796875 C 4.222656 -5.648438 4.484375 -5.441406 4.671875 -5.171875 C 4.859375 -4.910156 4.953125 -4.597656 4.953125 -4.234375 Z M 3.75 -4.234375 "/></g></g><g style="fill:rgb(100%,100%,100%);fill-opacity:1;"><g transform="translate(72.329382, 17.530832)"><path style="stroke:none;" d="M 3.75 -4.234375 C 3.726562 -4.472656 3.628906 -4.65625 3.453125 -4.78125 C 3.273438 -4.914062 3.035156 -4.984375 2.734375 -4.984375 C 2.421875 -4.984375 2.179688 -4.921875 2.015625 -4.796875 C 1.859375 -4.671875 1.78125 -4.507812 1.78125 -4.3125 C 1.769531 -4.101562 1.859375 -3.941406 2.046875 -3.828125 C 2.234375 -3.722656 2.457031 -3.640625 2.71875 -3.578125 L 3.25 -3.453125 C 3.59375 -3.367188 3.898438 -3.253906 4.171875 -3.109375 C 4.441406 -2.960938 4.648438 -2.773438 4.796875 -2.546875 C 4.953125 -2.316406 5.03125 -2.035156 5.03125 -1.703125 C 5.03125 -1.160156 4.828125 -0.726562 4.421875 -0.40625 C 4.015625 -0.0820312 3.445312 0.078125 2.71875 0.078125 C 2 0.078125 1.421875 -0.0820312 0.984375 -0.40625 C 0.554688 -0.738281 0.335938 -1.226562 0.328125 -1.875 L 1.546875 -1.875 C 1.566406 -1.570312 1.679688 -1.34375 1.890625 -1.1875 C 2.109375 -1.039062 2.378906 -0.96875 2.703125 -0.96875 C 3.023438 -0.96875 3.28125 -1.035156 3.46875 -1.171875 C 3.664062 -1.304688 3.765625 -1.484375 3.765625 -1.703125 C 3.765625 -1.898438 3.675781 -2.050781 3.5 -2.15625 C 3.320312 -2.269531 3.070312 -2.367188 2.75 -2.453125 L 2.109375 -2.609375 C 1.609375 -2.734375 1.210938 -2.925781 0.921875 -3.1875 C 0.628906 -3.445312 0.484375 -3.796875 0.484375 -4.234375 C 0.484375 -4.597656 0.578125 -4.910156 0.765625 -5.171875 C 0.960938 -5.441406 1.234375 -5.648438 1.578125 -5.796875 C 1.921875 -5.953125 2.304688 -6.03125 2.734375 -6.03125 C 3.179688 -6.03125 3.566406 -5.953125 3.890625 -5.796875 C 4.222656 -5.648438 4.484375 -5.441406 4.671875 -5.171875 C 4.859375 -4.910156 4.953125 -4.597656 4.953125 -4.234375 Z M 3.75 -4.234375 "/></g></g></g></svg>