<?xml version="1.0" encoding="UTF-8"?><svg xmlns="http://www.w3.org/2000/svg" xmlns:xlink="http://www.w3.org/1999/xlink" width="375pt" zoomAndPan="magnify" viewBox="0 0 375 374.999991" height="374.999991pt" preserveAspectRatio="xMidYMid meet" version="1.2"><defs><clipPath xml:id="clip1" id="clip1"><path d="M 8.699219 36 L 225 36 L 225 371.183594 L 8.699219 371.183594 Z M 8.699219 36 "/></clipPath><clipPath xml:id="clip2" id="clip2"><path d="M 8.699219 99 L 225 99 L 225 203 L 8.699219 203 Z M 8.699219 99 "/></clipPath><clipPath xml:id="clip3" id="clip3"><path d="M 8.699219 155 L 225 155 L 225 259 L 8.699219 259 Z M 8.699219 155 "/></clipPath><clipPath xml:id="clip4" id="clip4"><path d="M 8.699219 211 L 225 211 L 225 315 L 8.699219 315 Z M 8.699219 211 "/></clipPath><clipPath xml:id="clip5" id="clip5"><path d="M 8.699219 268 L 225 268 L 225 371.183594 L 8.699219 371.183594 Z M 8.699219 268 "/></clipPath><clipPath xml:id="clip6" id="clip6"><path d="M 8.699219 3.6875 L 225 3.6875 L 225 84 L 8.699219 84 Z M 8.699219 3.6875 "/></clipPath><clipPath xml:id="clip7" id="clip7"><path d="M 156 157 L 366.449219 157 L 366.449219 368 L 156 368 Z M 156 157 "/></clipPath></defs><g xml:id="surface1" id="surface1"><path style=" stroke:none;fill-rule:nonzero;fill:rgb(100%,100%,100%);fill-opacity:1;" d="M 116.726562 76.011719 C 61.164062 76.011719 16.117188 61.476562 16.117188 43.546875 L 16.117188 331.472656 C 16.117188 349.402344 61.164062 363.9375 116.726562 363.9375 C 172.289062 363.9375 217.335938 349.402344 217.335938 331.472656 L 217.335938 43.542969 C 217.335938 61.476562 172.289062 76.011719 116.726562 76.011719 Z M 116.726562 76.011719 "/><g clip-rule="nonzero" clip-path="url(#clip1)"><path style=" stroke:none;fill-rule:nonzero;fill:rgb(22.749329%,26.669312%,38.038635%);fill-opacity:1;" d="M 116.726562 371.285156 C 63.078125 371.285156 8.765625 357.609375 8.765625 331.472656 L 8.765625 43.542969 C 8.765625 39.488281 12.058594 36.199219 16.117188 36.199219 C 20.179688 36.199219 23.472656 39.488281 23.472656 43.542969 C 23.472656 46.550781 28.605469 53.300781 47.847656 59.511719 C 66.136719 65.414062 90.601562 68.664062 116.726562 68.664062 C 142.855469 68.664062 167.316406 65.414062 185.609375 59.511719 C 204.851562 53.300781 209.984375 46.554688 209.984375 43.542969 C 209.984375 39.488281 213.273438 36.199219 217.335938 36.199219 C 221.398438 36.199219 224.6875 39.488281 224.6875 43.542969 L 224.6875 331.472656 C 224.6875 357.609375 170.378906 371.285156 116.726562 371.285156 Z M 23.472656 64.660156 L 23.472656 331.472656 C 23.472656 334.480469 28.605469 341.230469 47.847656 347.4375 C 66.136719 353.339844 90.601562 356.589844 116.726562 356.589844 C 142.855469 356.589844 167.316406 353.339844 185.609375 347.4375 C 204.851562 341.230469 209.984375 334.484375 209.984375 331.472656 L 209.984375 64.660156 C 190.21875 77 153.320312 83.359375 116.726562 83.359375 C 80.132812 83.359375 43.234375 77 23.472656 64.660156 Z M 23.472656 64.660156 "/></g><path style=" stroke:none;fill-rule:nonzero;fill:rgb(100%,100%,100%);fill-opacity:1;" d="M 116.726562 139.199219 C 61.164062 139.199219 16.117188 124.664062 16.117188 106.730469 L 16.117188 162.683594 C 16.117188 180.613281 61.164062 195.148438 116.726562 195.148438 C 172.289062 195.148438 217.335938 180.613281 217.335938 162.683594 L 217.335938 106.730469 C 217.335938 124.664062 172.289062 139.199219 116.726562 139.199219 Z M 116.726562 139.199219 "/><g clip-rule="nonzero" clip-path="url(#clip2)"><path style=" stroke:none;fill-rule:nonzero;fill:rgb(22.749329%,26.669312%,38.038635%);fill-opacity:1;" d="M 116.726562 202.496094 C 63.078125 202.496094 8.765625 188.820312 8.765625 162.683594 L 8.765625 106.730469 C 8.765625 102.675781 12.058594 99.382812 16.117188 99.382812 C 20.179688 99.382812 23.472656 102.675781 23.472656 106.730469 C 23.472656 109.738281 28.605469 116.488281 47.847656 122.699219 C 66.136719 128.601562 90.601562 131.851562 116.726562 131.851562 C 142.855469 131.851562 167.316406 128.601562 185.609375 122.699219 C 204.851562 116.488281 209.984375 109.742188 209.984375 106.730469 C 209.984375 102.675781 213.273438 99.382812 217.335938 99.382812 C 221.398438 99.382812 224.6875 102.675781 224.6875 106.730469 L 224.6875 162.683594 C 224.6875 188.820312 170.378906 202.496094 116.726562 202.496094 Z M 23.472656 127.84375 L 23.472656 162.683594 C 23.472656 165.691406 28.605469 172.4375 47.847656 178.648438 C 66.136719 184.550781 90.601562 187.800781 116.726562 187.800781 C 142.855469 187.800781 167.316406 184.550781 185.609375 178.648438 C 204.851562 172.4375 209.984375 165.691406 209.984375 162.683594 L 209.984375 127.84375 C 190.21875 140.183594 153.320312 146.542969 116.726562 146.542969 C 80.132812 146.542969 43.234375 140.183594 23.472656 127.84375 Z M 23.472656 127.84375 "/></g><path style=" stroke:none;fill-rule:nonzero;fill:rgb(100%,100%,100%);fill-opacity:1;" d="M 116.726562 195.035156 C 61.164062 195.035156 16.117188 180.5 16.117188 162.570312 L 16.117188 218.519531 C 16.117188 236.449219 61.164062 250.984375 116.726562 250.984375 C 172.289062 250.984375 217.335938 236.449219 217.335938 218.519531 L 217.335938 162.570312 C 217.335938 180.5 172.289062 195.035156 116.726562 195.035156 Z M 116.726562 195.035156 "/><g clip-rule="nonzero" clip-path="url(#clip3)"><path style=" stroke:none;fill-rule:nonzero;fill:rgb(22.749329%,26.669312%,38.038635%);fill-opacity:1;" d="M 116.726562 258.332031 C 63.078125 258.332031 8.765625 244.65625 8.765625 218.519531 L 8.765625 162.570312 C 8.765625 158.511719 12.058594 155.222656 16.117188 155.222656 C 20.179688 155.222656 23.472656 158.511719 23.472656 162.570312 C 23.472656 165.578125 28.605469 172.324219 47.847656 178.535156 C 66.136719 184.4375 90.601562 187.6875 116.726562 187.6875 C 142.855469 187.6875 167.316406 184.4375 185.609375 178.535156 C 204.851562 172.324219 209.984375 165.578125 209.984375 162.570312 C 209.984375 158.511719 213.273438 155.222656 217.335938 155.222656 C 221.398438 155.222656 224.6875 158.511719 224.6875 162.570312 L 224.6875 218.519531 C 224.6875 244.65625 170.378906 258.332031 116.726562 258.332031 Z M 23.472656 183.679688 L 23.472656 218.519531 C 23.472656 221.527344 28.605469 228.273438 47.847656 234.484375 C 66.136719 240.386719 90.601562 243.636719 116.726562 243.636719 C 142.855469 243.636719 167.316406 240.386719 185.609375 234.484375 C 204.851562 228.273438 209.984375 221.527344 209.984375 218.519531 L 209.984375 183.679688 C 190.21875 196.019531 153.320312 202.382812 116.726562 202.382812 C 80.132812 202.382812 43.234375 196.019531 23.472656 183.679688 Z M 23.472656 183.679688 "/></g><path style=" stroke:none;fill-rule:nonzero;fill:rgb(100%,100%,100%);fill-opacity:1;" d="M 116.726562 251.222656 C 61.164062 251.222656 16.117188 236.6875 16.117188 218.757812 L 16.117188 274.707031 C 16.117188 292.636719 61.164062 307.171875 116.726562 307.171875 C 172.289062 307.171875 217.335938 292.636719 217.335938 274.707031 L 217.335938 218.757812 C 217.335938 236.6875 172.289062 251.222656 116.726562 251.222656 Z M 116.726562 251.222656 "/><g clip-rule="nonzero" clip-path="url(#clip4)"><path style=" stroke:none;fill-rule:nonzero;fill:rgb(22.749329%,26.669312%,38.038635%);fill-opacity:1;" d="M 116.726562 314.519531 C 63.078125 314.519531 8.765625 300.84375 8.765625 274.707031 L 8.765625 218.757812 C 8.765625 214.699219 12.058594 211.410156 16.117188 211.410156 C 20.179688 211.410156 23.472656 214.699219 23.472656 218.757812 C 23.472656 221.765625 28.605469 228.511719 47.847656 234.722656 C 66.136719 240.625 90.601562 243.875 116.726562 243.875 C 142.855469 243.875 167.316406 240.625 185.609375 234.722656 C 204.851562 228.511719 209.984375 221.765625 209.984375 218.757812 C 209.984375 214.699219 213.273438 211.410156 217.335938 211.410156 C 221.398438 211.410156 224.6875 214.699219 224.6875 218.757812 L 224.6875 274.707031 C 224.6875 300.84375 170.378906 314.519531 116.726562 314.519531 Z M 23.472656 239.867188 L 23.472656 274.707031 C 23.472656 277.714844 28.605469 284.460938 47.847656 290.671875 C 66.136719 296.574219 90.601562 299.824219 116.726562 299.824219 C 142.855469 299.824219 167.316406 296.574219 185.609375 290.671875 C 204.851562 284.460938 209.984375 277.714844 209.984375 274.707031 L 209.984375 239.867188 C 190.21875 252.207031 153.320312 258.570312 116.726562 258.570312 C 80.132812 258.570312 43.234375 252.207031 23.472656 239.867188 Z M 23.472656 239.867188 "/></g><path style=" stroke:none;fill-rule:nonzero;fill:rgb(100%,100%,100%);fill-opacity:1;" d="M 116.726562 307.96875 C 61.164062 307.96875 16.117188 293.433594 16.117188 275.5 L 16.117188 331.453125 C 16.117188 349.382812 61.164062 363.917969 116.726562 363.917969 C 172.289062 363.917969 217.335938 349.382812 217.335938 331.453125 L 217.335938 275.5 C 217.335938 293.433594 172.289062 307.96875 116.726562 307.96875 Z M 116.726562 307.96875 "/><g clip-rule="nonzero" clip-path="url(#clip5)"><path style=" stroke:none;fill-rule:nonzero;fill:rgb(22.749329%,26.669312%,38.038635%);fill-opacity:1;" d="M 116.726562 371.265625 C 63.078125 371.265625 8.765625 357.589844 8.765625 331.453125 L 8.765625 275.5 C 8.765625 271.445312 12.058594 268.15625 16.117188 268.15625 C 20.179688 268.15625 23.472656 271.445312 23.472656 275.5 C 23.472656 278.507812 28.605469 285.257812 47.847656 291.46875 C 66.136719 297.371094 90.601562 300.621094 116.726562 300.621094 C 142.855469 300.621094 167.316406 297.371094 185.609375 291.46875 C 204.851562 285.257812 209.984375 278.511719 209.984375 275.5 C 209.984375 271.445312 213.273438 268.15625 217.335938 268.15625 C 221.398438 268.15625 224.6875 271.445312 224.6875 275.5 L 224.6875 331.453125 C 224.6875 357.589844 170.378906 371.265625 116.726562 371.265625 Z M 23.472656 296.613281 L 23.472656 331.453125 C 23.472656 334.460938 28.605469 341.207031 47.847656 347.417969 C 66.136719 353.320312 90.601562 356.570312 116.726562 356.570312 C 142.855469 356.570312 167.316406 353.320312 185.609375 347.417969 C 204.851562 341.207031 209.984375 334.460938 209.984375 331.453125 L 209.984375 296.613281 C 190.21875 308.953125 153.320312 315.316406 116.726562 315.316406 C 80.132812 315.316406 43.234375 308.953125 23.472656 296.613281 Z M 23.472656 296.613281 "/></g><path style=" stroke:none;fill-rule:nonzero;fill:rgb(100%,100%,100%);fill-opacity:1;" d="M 217.335938 43.546875 C 217.335938 44.078125 217.296875 44.609375 217.214844 45.140625 C 217.132812 45.671875 217.011719 46.199219 216.851562 46.730469 C 216.691406 47.257812 216.488281 47.785156 216.246094 48.308594 C 216.007812 48.835938 215.726562 49.359375 215.402344 49.878906 C 215.082031 50.402344 214.722656 50.917969 214.320312 51.433594 C 213.921875 51.949219 213.484375 52.460938 213.003906 52.972656 C 212.527344 53.480469 212.011719 53.984375 211.457031 54.484375 C 210.902344 54.984375 210.308594 55.480469 209.679688 55.972656 C 209.046875 56.460938 208.382812 56.945312 207.675781 57.425781 C 206.972656 57.90625 206.234375 58.382812 205.457031 58.851562 C 204.679688 59.320312 203.871094 59.78125 203.023438 60.238281 C 202.175781 60.691406 201.296875 61.140625 200.382812 61.582031 C 199.464844 62.027344 198.519531 62.460938 197.539062 62.886719 C 196.558594 63.3125 195.542969 63.730469 194.5 64.144531 C 193.453125 64.554688 192.378906 64.957031 191.273438 65.347656 C 190.167969 65.742188 189.035156 66.128906 187.867188 66.503906 C 186.703125 66.878906 185.511719 67.246094 184.292969 67.601562 C 183.074219 67.960938 181.824219 68.304688 180.554688 68.644531 C 179.28125 68.980469 177.984375 69.308594 176.660156 69.625 C 175.335938 69.941406 173.992188 70.246094 172.621094 70.542969 C 171.253906 70.835938 169.863281 71.121094 168.449219 71.394531 C 167.039062 71.667969 165.605469 71.929688 164.15625 72.179688 C 162.703125 72.429688 161.230469 72.667969 159.742188 72.894531 C 158.253906 73.121094 156.75 73.339844 155.230469 73.542969 C 153.707031 73.746094 152.171875 73.9375 150.621094 74.113281 C 149.070312 74.292969 147.507812 74.460938 145.933594 74.613281 C 144.355469 74.769531 142.769531 74.910156 141.171875 75.039062 C 139.578125 75.167969 137.96875 75.285156 136.355469 75.390625 C 134.742188 75.492188 133.117188 75.582031 131.488281 75.660156 C 129.859375 75.738281 128.226562 75.804688 126.589844 75.855469 C 124.949219 75.910156 123.308594 75.949219 121.664062 75.972656 C 120.019531 76 118.375 76.011719 116.726562 76.011719 C 115.082031 76.011719 113.433594 76 111.789062 75.972656 C 110.144531 75.949219 108.503906 75.910156 106.867188 75.855469 C 105.226562 75.804688 103.59375 75.738281 101.964844 75.660156 C 100.335938 75.582031 98.714844 75.492188 97.101562 75.390625 C 95.484375 75.285156 93.878906 75.167969 92.28125 75.039062 C 90.683594 74.910156 89.097656 74.769531 87.523438 74.613281 C 85.945312 74.460938 84.382812 74.292969 82.832031 74.113281 C 81.28125 73.9375 79.746094 73.746094 78.226562 73.542969 C 76.703125 73.339844 75.199219 73.121094 73.710938 72.894531 C 72.222656 72.667969 70.753906 72.429688 69.300781 72.179688 C 67.847656 71.929688 66.417969 71.667969 65.003906 71.394531 C 63.59375 71.121094 62.199219 70.835938 60.832031 70.542969 C 59.464844 70.246094 58.117188 69.941406 56.792969 69.625 C 55.472656 69.308594 54.175781 68.980469 52.902344 68.644531 C 51.628906 68.304688 50.382812 67.960938 49.164062 67.601562 C 47.941406 67.246094 46.75 66.878906 45.585938 66.503906 C 44.421875 66.128906 43.285156 65.742188 42.179688 65.347656 C 41.074219 64.957031 40 64.554688 38.957031 64.144531 C 37.910156 63.730469 36.898438 63.3125 35.917969 62.886719 C 34.9375 62.460938 33.988281 62.027344 33.074219 61.582031 C 32.160156 61.140625 31.277344 60.691406 30.433594 60.238281 C 29.585938 59.78125 28.773438 59.320312 28 58.851562 C 27.222656 58.382812 26.480469 57.90625 25.777344 57.425781 C 25.074219 56.945312 24.40625 56.460938 23.777344 55.972656 C 23.148438 55.480469 22.554688 54.984375 22 54.484375 C 21.445312 53.984375 20.929688 53.480469 20.449219 52.972656 C 19.972656 52.460938 19.535156 51.949219 19.132812 51.433594 C 18.734375 50.917969 18.371094 50.402344 18.050781 49.878906 C 17.730469 49.359375 17.449219 48.835938 17.207031 48.308594 C 16.964844 47.785156 16.765625 47.257812 16.601562 46.730469 C 16.441406 46.199219 16.320312 45.671875 16.238281 45.140625 C 16.160156 44.609375 16.117188 44.078125 16.117188 43.546875 C 16.117188 43.015625 16.160156 42.484375 16.238281 41.953125 C 16.320312 41.421875 16.441406 40.894531 16.601562 40.363281 C 16.765625 39.835938 16.964844 39.308594 17.207031 38.78125 C 17.449219 38.257812 17.730469 37.734375 18.050781 37.210938 C 18.371094 36.691406 18.734375 36.171875 19.132812 35.65625 C 19.535156 35.140625 19.972656 34.628906 20.449219 34.121094 C 20.929688 33.613281 21.445312 33.109375 22 32.609375 C 22.554688 32.109375 23.148438 31.613281 23.777344 31.121094 C 24.40625 30.632812 25.074219 30.144531 25.777344 29.664062 C 26.480469 29.183594 27.222656 28.710938 28 28.242188 C 28.773438 27.773438 29.585938 27.3125 30.433594 26.855469 C 31.277344 26.398438 32.160156 25.949219 33.074219 25.507812 C 33.988281 25.066406 34.9375 24.632812 35.917969 24.207031 C 36.898438 23.777344 37.910156 23.359375 38.957031 22.949219 C 40 22.539062 41.074219 22.136719 42.179688 21.742188 C 43.285156 21.347656 44.421875 20.964844 45.585938 20.589844 C 46.75 20.214844 47.941406 19.847656 49.164062 19.488281 C 50.382812 19.132812 51.628906 18.785156 52.902344 18.449219 C 54.175781 18.113281 55.472656 17.785156 56.792969 17.46875 C 58.117188 17.152344 59.464844 16.847656 60.832031 16.550781 C 62.199219 16.257812 63.59375 15.972656 65.003906 15.699219 C 66.417969 15.425781 67.847656 15.164062 69.300781 14.914062 C 70.753906 14.664062 72.222656 14.425781 73.710938 14.195312 C 75.199219 13.96875 76.703125 13.753906 78.226562 13.550781 C 79.746094 13.347656 81.28125 13.15625 82.832031 12.976562 C 84.382812 12.796875 85.945312 12.632812 87.523438 12.476562 C 89.097656 12.324219 90.683594 12.183594 92.28125 12.050781 C 93.878906 11.921875 95.484375 11.808594 97.101562 11.703125 C 98.714844 11.601562 100.335938 11.507812 101.964844 11.429688 C 103.59375 11.351562 105.226562 11.289062 106.867188 11.234375 C 108.503906 11.183594 110.144531 11.144531 111.789062 11.117188 C 113.433594 11.09375 115.082031 11.078125 116.726562 11.078125 C 118.375 11.078125 120.019531 11.09375 121.664062 11.117188 C 123.308594 11.144531 124.949219 11.183594 126.589844 11.234375 C 128.226562 11.289062 129.859375 11.351562 131.488281 11.429688 C 133.117188 11.507812 134.742188 11.601562 136.355469 11.703125 C 137.96875 11.808594 139.578125 11.921875 141.171875 12.050781 C 142.769531 12.183594 144.355469 12.324219 145.933594 12.476562 C 147.507812 12.632812 149.070312 12.796875 150.621094 12.976562 C 152.171875 13.15625 153.707031 13.347656 155.230469 13.550781 C 156.75 13.753906 158.253906 13.96875 159.742188 14.195312 C 161.230469 14.425781 162.703125 14.664062 164.15625 14.914062 C 165.605469 15.164062 167.039062 15.425781 168.449219 15.699219 C 169.863281 15.972656 171.253906 16.257812 172.621094 16.550781 C 173.992188 16.847656 175.335938 17.152344 176.660156 17.46875 C 177.984375 17.785156 179.28125 18.113281 180.554688 18.449219 C 181.824219 18.785156 183.074219 19.132812 184.292969 19.488281 C 185.511719 19.847656 186.703125 20.214844 187.867188 20.589844 C 189.035156 20.964844 190.167969 21.347656 191.273438 21.742188 C 192.378906 22.136719 193.453125 22.539062 194.5 22.949219 C 195.542969 23.359375 196.558594 23.777344 197.539062 24.207031 C 198.519531 24.632812 199.464844 25.066406 200.382812 25.507812 C 201.296875 25.949219 202.175781 26.398438 203.023438 26.855469 C 203.871094 27.3125 204.679688 27.773438 205.457031 28.242188 C 206.234375 28.710938 206.972656 29.183594 207.675781 29.664062 C 208.382812 30.144531 209.046875 30.632812 209.679688 31.121094 C 210.308594 31.613281 210.902344 32.109375 211.457031 32.609375 C 212.011719 33.109375 212.527344 33.613281 213.003906 34.121094 C 213.484375 34.628906 213.921875 35.140625 214.320312 35.65625 C 214.722656 36.171875 215.082031 36.691406 215.402344 37.210938 C 215.726562 37.734375 216.007812 38.257812 216.246094 38.78125 C 216.488281 39.308594 216.691406 39.835938 216.851562 40.363281 C 217.011719 40.894531 217.132812 41.421875 217.214844 41.953125 C 217.296875 42.484375 217.335938 43.015625 217.335938 43.546875 Z M 217.335938 43.546875 "/><g clip-rule="nonzero" clip-path="url(#clip6)"><path style=" stroke:none;fill-rule:nonzero;fill:rgb(22.749329%,26.669312%,38.038635%);fill-opacity:1;" d="M 116.726562 83.359375 C 63.078125 83.359375 8.765625 69.683594 8.765625 43.546875 C 8.765625 17.410156 63.078125 3.734375 116.726562 3.734375 C 170.378906 3.734375 224.6875 17.410156 224.6875 43.546875 C 224.6875 69.683594 170.378906 83.359375 116.726562 83.359375 Z M 116.726562 18.425781 C 90.601562 18.425781 66.140625 21.675781 47.847656 27.578125 C 28.605469 33.789062 23.472656 40.535156 23.472656 43.542969 C 23.472656 46.554688 28.605469 53.300781 47.847656 59.511719 C 66.136719 65.414062 90.601562 68.664062 116.726562 68.664062 C 142.855469 68.664062 167.316406 65.414062 185.609375 59.511719 C 204.851562 53.300781 209.984375 46.554688 209.984375 43.542969 C 209.984375 40.535156 204.851562 33.789062 185.609375 27.578125 C 167.316406 21.679688 142.851562 18.425781 116.726562 18.425781 Z M 116.726562 18.425781 "/></g><path style=" stroke:none;fill-rule:nonzero;fill:rgb(100%,100%,100%);fill-opacity:1;" d="M 359.027344 262.964844 C 359.027344 264.5625 358.988281 266.160156 358.910156 267.753906 C 358.832031 269.351562 358.714844 270.945312 358.558594 272.535156 C 358.398438 274.125 358.203125 275.710938 357.96875 277.289062 C 357.734375 278.871094 357.460938 280.445312 357.148438 282.011719 C 356.839844 283.578125 356.488281 285.136719 356.097656 286.6875 C 355.710938 288.234375 355.285156 289.777344 354.820312 291.304688 C 354.355469 292.832031 353.855469 294.351562 353.316406 295.855469 C 352.777344 297.359375 352.203125 298.847656 351.589844 300.324219 C 350.976562 301.800781 350.332031 303.261719 349.648438 304.707031 C 348.964844 306.148438 348.246094 307.578125 347.492188 308.984375 C 346.738281 310.394531 345.949219 311.785156 345.128906 313.15625 C 344.304688 314.527344 343.449219 315.875 342.5625 317.203125 C 341.671875 318.53125 340.753906 319.839844 339.800781 321.121094 C 338.847656 322.40625 337.863281 323.664062 336.851562 324.898438 C 335.835938 326.132812 334.792969 327.34375 333.71875 328.527344 C 332.644531 329.710938 331.542969 330.867188 330.410156 331.996094 C 329.28125 333.128906 328.125 334.230469 326.9375 335.300781 C 325.753906 336.375 324.542969 337.417969 323.308594 338.433594 C 322.070312 339.445312 320.8125 340.429688 319.527344 341.378906 C 318.242188 342.332031 316.9375 343.25 315.605469 344.140625 C 314.277344 345.027344 312.925781 345.882812 311.554688 346.703125 C 310.183594 347.523438 308.792969 348.3125 307.382812 349.066406 C 305.972656 349.816406 304.542969 350.535156 303.097656 351.21875 C 301.652344 351.902344 300.191406 352.550781 298.714844 353.160156 C 297.238281 353.773438 295.746094 354.347656 294.242188 354.886719 C 292.734375 355.421875 291.21875 355.925781 289.6875 356.390625 C 288.15625 356.851562 286.617188 357.277344 285.066406 357.667969 C 283.515625 358.054688 281.957031 358.40625 280.386719 358.714844 C 278.820312 359.027344 277.246094 359.300781 275.664062 359.535156 C 274.082031 359.769531 272.496094 359.964844 270.902344 360.121094 C 269.3125 360.277344 267.71875 360.398438 266.121094 360.476562 C 264.523438 360.554688 262.925781 360.59375 261.328125 360.59375 C 259.726562 360.59375 258.128906 360.554688 256.53125 360.476562 C 254.9375 360.398438 253.34375 360.277344 251.75 360.121094 C 250.160156 359.964844 248.574219 359.769531 246.992188 359.535156 C 245.410156 359.300781 243.835938 359.027344 242.265625 358.714844 C 240.699219 358.40625 239.136719 358.054688 237.585938 357.667969 C 236.035156 357.277344 234.496094 356.851562 232.964844 356.390625 C 231.4375 355.925781 229.917969 355.421875 228.414062 354.886719 C 226.90625 354.347656 225.414062 353.773438 223.9375 353.160156 C 222.460938 352.550781 221 351.902344 219.554688 351.21875 C 218.109375 350.535156 216.679688 349.816406 215.269531 349.066406 C 213.859375 348.3125 212.46875 347.523438 211.097656 346.703125 C 209.726562 345.882812 208.375 345.027344 207.046875 344.140625 C 205.71875 343.25 204.410156 342.332031 203.125 341.378906 C 201.84375 340.429688 200.582031 339.445312 199.347656 338.433594 C 198.109375 337.417969 196.898438 336.375 195.714844 335.300781 C 194.53125 334.230469 193.371094 333.128906 192.242188 331.996094 C 191.113281 330.867188 190.007812 329.710938 188.9375 328.527344 C 187.863281 327.34375 186.816406 326.132812 185.804688 324.898438 C 184.789062 323.664062 183.804688 322.40625 182.851562 321.121094 C 181.902344 319.839844 180.980469 318.53125 180.09375 317.203125 C 179.203125 315.875 178.347656 314.527344 177.527344 313.15625 C 176.703125 311.785156 175.917969 310.394531 175.164062 308.984375 C 174.410156 307.578125 173.691406 306.148438 173.007812 304.707031 C 172.324219 303.261719 171.675781 301.800781 171.0625 300.324219 C 170.453125 298.847656 169.875 297.359375 169.335938 295.855469 C 168.800781 294.351562 168.296875 292.832031 167.832031 291.304688 C 167.371094 289.777344 166.941406 288.234375 166.554688 286.6875 C 166.164062 285.136719 165.816406 283.578125 165.503906 282.011719 C 165.191406 280.445312 164.917969 278.871094 164.683594 277.289062 C 164.449219 275.710938 164.253906 274.125 164.097656 272.535156 C 163.941406 270.945312 163.824219 269.351562 163.746094 267.753906 C 163.664062 266.160156 163.625 264.5625 163.625 262.964844 C 163.625 261.367188 163.664062 259.769531 163.746094 258.175781 C 163.824219 256.578125 163.941406 254.984375 164.097656 253.394531 C 164.253906 251.804688 164.449219 250.21875 164.683594 248.640625 C 164.917969 247.058594 165.191406 245.484375 165.503906 243.917969 C 165.816406 242.351562 166.164062 240.792969 166.554688 239.242188 C 166.941406 237.691406 167.371094 236.152344 167.832031 234.625 C 168.296875 233.097656 168.800781 231.578125 169.335938 230.074219 C 169.875 228.570312 170.453125 227.082031 171.0625 225.605469 C 171.675781 224.128906 172.324219 222.667969 173.007812 221.222656 C 173.691406 219.777344 174.410156 218.351562 175.164062 216.945312 C 175.917969 215.535156 176.703125 214.144531 177.527344 212.773438 C 178.347656 211.402344 179.203125 210.054688 180.09375 208.726562 C 180.980469 207.398438 181.902344 206.089844 182.851562 204.808594 C 183.804688 203.523438 184.789062 202.265625 185.804688 201.03125 C 186.816406 199.796875 187.863281 198.585938 188.9375 197.402344 C 190.007812 196.21875 191.113281 195.0625 192.242188 193.929688 C 193.371094 192.800781 194.53125 191.699219 195.714844 190.628906 C 196.898438 189.554688 198.109375 188.511719 199.347656 187.496094 C 200.582031 186.484375 201.84375 185.5 203.125 184.550781 C 204.410156 183.597656 205.71875 182.679688 207.046875 181.789062 C 208.375 180.902344 209.726562 180.046875 211.097656 179.226562 C 212.46875 178.40625 213.859375 177.617188 215.269531 176.863281 C 216.679688 176.113281 218.109375 175.394531 219.554688 174.710938 C 221 174.027344 222.460938 173.378906 223.9375 172.769531 C 225.414062 172.15625 226.90625 171.582031 228.414062 171.042969 C 229.917969 170.503906 231.4375 170.003906 232.964844 169.539062 C 234.496094 169.078125 236.035156 168.652344 237.585938 168.261719 C 239.140625 167.875 240.699219 167.523438 242.265625 167.214844 C 243.835938 166.902344 245.410156 166.628906 246.992188 166.394531 C 248.574219 166.160156 250.160156 165.964844 251.75 165.808594 C 253.34375 165.652344 254.9375 165.53125 256.53125 165.453125 C 258.128906 165.375 259.726562 165.335938 261.328125 165.335938 C 262.925781 165.335938 264.523438 165.375 266.121094 165.453125 C 267.71875 165.53125 269.3125 165.652344 270.902344 165.808594 C 272.496094 165.964844 274.082031 166.160156 275.664062 166.394531 C 277.246094 166.628906 278.820312 166.902344 280.386719 167.214844 C 281.957031 167.523438 283.515625 167.875 285.066406 168.261719 C 286.617188 168.652344 288.15625 169.078125 289.6875 169.539062 C 291.21875 170.003906 292.734375 170.503906 294.242188 171.042969 C 295.746094 171.582031 297.238281 172.15625 298.714844 172.769531 C 300.191406 173.378906 301.652344 174.027344 303.097656 174.710938 C 304.542969 175.394531 305.972656 176.113281 307.382812 176.863281 C 308.792969 177.617188 310.183594 178.40625 311.554688 179.226562 C 312.925781 180.046875 314.277344 180.902344 315.605469 181.789062 C 316.9375 182.679688 318.242188 183.597656 319.527344 184.550781 C 320.8125 185.5 322.070312 186.484375 323.308594 187.496094 C 324.542969 188.511719 325.753906 189.554688 326.9375 190.628906 C 328.125 191.699219 329.28125 192.800781 330.410156 193.929688 C 331.542969 195.0625 332.644531 196.21875 333.71875 197.402344 C 334.792969 198.585938 335.835938 199.796875 336.851562 201.03125 C 337.863281 202.265625 338.847656 203.523438 339.800781 204.808594 C 340.753906 206.089844 341.671875 207.398438 342.5625 208.726562 C 343.449219 210.054688 344.304688 211.402344 345.128906 212.773438 C 345.949219 214.144531 346.738281 215.535156 347.492188 216.941406 C 348.246094 218.351562 348.964844 219.777344 349.648438 221.222656 C 350.332031 222.667969 350.976562 224.128906 351.589844 225.605469 C 352.203125 227.082031 352.777344 228.570312 353.316406 230.074219 C 353.855469 231.578125 354.355469 233.097656 354.820312 234.625 C 355.285156 236.152344 355.710938 237.691406 356.097656 239.242188 C 356.488281 240.792969 356.839844 242.351562 357.148438 243.917969 C 357.460938 245.484375 357.734375 247.058594 357.96875 248.640625 C 358.203125 250.21875 358.398438 251.804688 358.558594 253.394531 C 358.714844 254.984375 358.832031 256.578125 358.910156 258.175781 C 358.988281 259.769531 359.027344 261.367188 359.027344 262.964844 Z M 359.027344 262.964844 "/><g clip-rule="nonzero" clip-path="url(#clip7)"><path style=" stroke:none;fill-rule:nonzero;fill:rgb(22.749329%,26.669312%,38.038635%);fill-opacity:1;" d="M 261.328125 367.941406 C 203.402344 367.941406 156.273438 320.847656 156.273438 262.964844 C 156.273438 205.082031 203.402344 157.988281 261.328125 157.988281 C 319.253906 157.988281 366.378906 205.082031 366.378906 262.964844 C 366.378906 320.847656 319.253906 367.941406 261.328125 367.941406 Z M 261.328125 172.683594 C 211.507812 172.683594 170.980469 213.183594 170.980469 262.964844 C 170.980469 312.746094 211.511719 353.246094 261.328125 353.246094 C 311.144531 353.246094 351.675781 312.746094 351.675781 262.964844 C 351.675781 213.183594 311.144531 172.683594 261.328125 172.683594 Z M 261.328125 172.683594 "/></g><path style=" stroke:none;fill-rule:nonzero;fill:rgb(100%,100%,100%);fill-opacity:1;" d="M 326.675781 262.964844 C 326.675781 264.5625 326.636719 266.160156 326.558594 267.753906 C 326.480469 269.351562 326.363281 270.945312 326.207031 272.535156 C 326.050781 274.125 325.851562 275.710938 325.617188 277.289062 C 325.382812 278.871094 325.109375 280.445312 324.800781 282.011719 C 324.488281 283.578125 324.136719 285.136719 323.75 286.6875 C 323.359375 288.234375 322.933594 289.777344 322.46875 291.304688 C 322.003906 292.832031 321.503906 294.351562 320.964844 295.855469 C 320.425781 297.359375 319.851562 298.847656 319.238281 300.324219 C 318.628906 301.800781 317.980469 303.261719 317.296875 304.707031 C 316.613281 306.148438 315.894531 307.578125 315.140625 308.984375 C 314.386719 310.394531 313.597656 311.785156 312.777344 313.15625 C 311.953125 314.527344 311.097656 315.875 310.210938 317.203125 C 309.324219 318.53125 308.402344 319.839844 307.449219 321.121094 C 306.496094 322.40625 305.511719 323.664062 304.5 324.898438 C 303.484375 326.132812 302.441406 327.34375 301.367188 328.527344 C 300.292969 329.710938 299.191406 330.867188 298.058594 331.996094 C 296.929688 333.128906 295.773438 334.230469 294.585938 335.300781 C 293.402344 336.375 292.191406 337.417969 290.957031 338.433594 C 289.71875 339.445312 288.460938 340.429688 287.175781 341.378906 C 285.890625 342.332031 284.585938 343.25 283.253906 344.140625 C 281.925781 345.027344 280.574219 345.882812 279.203125 346.703125 C 277.832031 347.523438 276.441406 348.3125 275.03125 349.066406 C 273.621094 349.816406 272.195312 350.535156 270.75 351.21875 C 269.300781 351.902344 267.839844 352.550781 266.363281 353.160156 C 264.886719 353.773438 263.394531 354.347656 261.890625 354.886719 C 260.382812 355.421875 258.867188 355.925781 257.335938 356.390625 C 255.804688 356.851562 254.265625 357.277344 252.714844 357.667969 C 251.164062 358.054688 249.605469 358.40625 248.035156 358.714844 C 246.46875 359.027344 244.894531 359.300781 243.3125 359.535156 C 241.730469 359.769531 240.144531 359.964844 238.550781 360.121094 C 236.960938 360.277344 235.367188 360.398438 233.769531 360.476562 C 232.171875 360.554688 230.574219 360.59375 228.976562 360.59375 C 227.375 360.59375 225.777344 360.554688 224.183594 360.476562 C 222.585938 360.398438 220.992188 360.277344 219.398438 360.121094 C 217.808594 359.964844 216.222656 359.769531 214.640625 359.535156 C 213.058594 359.300781 211.484375 359.027344 209.914062 358.714844 C 208.347656 358.40625 206.789062 358.054688 205.238281 357.667969 C 203.683594 357.277344 202.144531 356.851562 200.613281 356.390625 C 199.085938 355.925781 197.566406 355.421875 196.0625 354.886719 C 194.554688 354.347656 193.066406 353.773438 191.585938 353.160156 C 190.109375 352.550781 188.648438 351.902344 187.203125 351.21875 C 185.757812 350.535156 184.332031 349.816406 182.921875 349.066406 C 181.511719 348.3125 180.117188 347.523438 178.746094 346.703125 C 177.375 345.882812 176.027344 345.027344 174.695312 344.140625 C 173.367188 343.25 172.058594 342.332031 170.777344 341.378906 C 169.492188 340.429688 168.230469 339.445312 166.996094 338.433594 C 165.757812 337.417969 164.550781 336.375 163.363281 335.300781 C 162.179688 334.230469 161.023438 333.128906 159.890625 331.996094 C 158.761719 330.867188 157.660156 329.710938 156.585938 328.527344 C 155.511719 327.34375 154.464844 326.132812 153.453125 324.898438 C 152.4375 323.664062 151.453125 322.40625 150.503906 321.121094 C 149.550781 319.839844 148.628906 318.53125 147.742188 317.203125 C 146.851562 315.875 145.996094 314.527344 145.175781 313.15625 C 144.351562 311.785156 143.566406 310.394531 142.8125 308.984375 C 142.058594 307.578125 141.339844 306.148438 140.65625 304.707031 C 139.972656 303.261719 139.324219 301.800781 138.710938 300.324219 C 138.101562 298.847656 137.523438 297.359375 136.988281 295.855469 C 136.449219 294.351562 135.945312 292.832031 135.480469 291.304688 C 135.019531 289.777344 134.59375 288.234375 134.203125 286.6875 C 133.816406 285.136719 133.464844 283.578125 133.152344 282.011719 C 132.839844 280.445312 132.566406 278.871094 132.332031 277.289062 C 132.097656 275.710938 131.902344 274.125 131.746094 272.535156 C 131.589844 270.945312 131.472656 269.351562 131.394531 267.753906 C 131.316406 266.160156 131.273438 264.5625 131.273438 262.964844 C 131.273438 261.367188 131.316406 259.769531 131.394531 258.175781 C 131.472656 256.578125 131.589844 254.984375 131.746094 253.394531 C 131.902344 251.804688 132.097656 250.21875 132.332031 248.640625 C 132.566406 247.058594 132.839844 245.484375 133.152344 243.917969 C 133.464844 242.351562 133.816406 240.792969 134.203125 239.242188 C 134.589844 237.691406 135.019531 236.152344 135.480469 234.625 C 135.945312 233.097656 136.449219 231.578125 136.988281 230.074219 C 137.523438 228.570312 138.101562 227.082031 138.710938 225.605469 C 139.324219 224.128906 139.972656 222.667969 140.65625 221.222656 C 141.339844 219.777344 142.058594 218.351562 142.8125 216.945312 C 143.566406 215.535156 144.351562 214.144531 145.175781 212.773438 C 145.996094 211.402344 146.851562 210.054688 147.742188 208.726562 C 148.628906 207.398438 149.550781 206.089844 150.503906 204.808594 C 151.453125 203.523438 152.4375 202.265625 153.453125 201.03125 C 154.464844 199.796875 155.511719 198.585938 156.585938 197.402344 C 157.660156 196.21875 158.761719 195.0625 159.890625 193.929688 C 161.023438 192.800781 162.179688 191.699219 163.363281 190.628906 C 164.550781 189.554688 165.757812 188.511719 166.996094 187.496094 C 168.230469 186.484375 169.492188 185.5 170.777344 184.550781 C 172.058594 183.597656 173.367188 182.679688 174.695312 181.789062 C 176.027344 180.902344 177.375 180.046875 178.746094 179.226562 C 180.121094 178.40625 181.511719 177.617188 182.921875 176.863281 C 184.332031 176.113281 185.757812 175.394531 187.203125 174.710938 C 188.648438 174.027344 190.109375 173.378906 191.585938 172.769531 C 193.066406 172.15625 194.554688 171.582031 196.0625 171.042969 C 197.566406 170.503906 199.085938 170.003906 200.613281 169.539062 C 202.144531 169.078125 203.683594 168.652344 205.238281 168.261719 C 206.789062 167.875 208.347656 167.523438 209.914062 167.214844 C 211.484375 166.902344 213.058594 166.628906 214.640625 166.394531 C 216.222656 166.160156 217.808594 165.964844 219.398438 165.808594 C 220.992188 165.652344 222.585938 165.53125 224.183594 165.453125 C 225.777344 165.375 227.375 165.335938 228.976562 165.335938 C 230.574219 165.335938 232.171875 165.375 233.769531 165.453125 C 235.367188 165.53125 236.960938 165.652344 238.550781 165.808594 C 240.144531 165.964844 241.730469 166.160156 243.3125 166.394531 C 244.894531 166.628906 246.46875 166.902344 248.035156 167.214844 C 249.605469 167.523438 251.164062 167.875 252.714844 168.261719 C 254.265625 168.652344 255.804688 169.078125 257.335938 169.539062 C 258.867188 170.003906 260.382812 170.503906 261.890625 171.042969 C 263.394531 171.582031 264.886719 172.15625 266.363281 172.769531 C 267.839844 173.378906 269.300781 174.027344 270.75 174.710938 C 272.195312 175.394531 273.621094 176.113281 275.03125 176.863281 C 276.441406 177.617188 277.832031 178.40625 279.203125 179.226562 C 280.574219 180.046875 281.925781 180.902344 283.253906 181.789062 C 284.585938 182.679688 285.890625 183.597656 287.175781 184.550781 C 288.460938 185.5 289.71875 186.484375 290.957031 187.496094 C 292.191406 188.511719 293.402344 189.554688 294.585938 190.628906 C 295.773438 191.699219 296.929688 192.800781 298.058594 193.929688 C 299.191406 195.0625 300.292969 196.21875 301.367188 197.402344 C 302.441406 198.585938 303.484375 199.796875 304.5 201.03125 C 305.511719 202.265625 306.496094 203.523438 307.449219 204.808594 C 308.402344 206.089844 309.324219 207.398438 310.210938 208.726562 C 311.097656 210.054688 311.953125 211.402344 312.777344 212.773438 C 313.597656 214.144531 314.386719 215.535156 315.140625 216.941406 C 315.894531 218.351562 316.613281 219.777344 317.296875 221.222656 C 317.980469 222.667969 318.628906 224.128906 319.238281 225.605469 C 319.851562 227.082031 320.425781 228.570312 320.964844 230.074219 C 321.503906 231.578125 322.003906 233.097656 322.46875 234.625 C 322.933594 236.152344 323.359375 237.691406 323.75 239.242188 C 324.136719 240.792969 324.488281 242.351562 324.800781 243.917969 C 325.109375 245.484375 325.382812 247.058594 325.617188 248.640625 C 325.851562 250.21875 326.050781 251.804688 326.207031 253.394531 C 326.363281 254.984375 326.480469 256.578125 326.558594 258.175781 C 326.636719 259.769531 326.675781 261.367188 326.675781 262.964844 Z M 326.675781 262.964844 "/><path style=" stroke:none;fill-rule:nonzero;fill:rgb(22.749329%,26.669312%,38.038635%);fill-opacity:1;" d="M 228.976562 367.941406 C 171.050781 367.941406 123.921875 320.847656 123.921875 262.964844 C 123.921875 205.082031 171.050781 157.988281 228.976562 157.988281 C 286.902344 157.988281 334.027344 205.082031 334.027344 262.964844 C 334.027344 320.847656 286.902344 367.941406 228.976562 367.941406 Z M 228.976562 172.683594 C 179.15625 172.683594 138.628906 213.183594 138.628906 262.964844 C 138.628906 312.746094 179.160156 353.246094 228.976562 353.246094 C 278.796875 353.246094 319.324219 312.746094 319.324219 262.964844 C 319.324219 213.183594 278.796875 172.683594 228.976562 172.683594 Z M 228.976562 172.683594 "/><path style=" stroke:none;fill-rule:nonzero;fill:rgb(100%,100%,100%);fill-opacity:1;" d="M 198.109375 277.625 C 198.109375 287.574219 211.097656 295.636719 227.121094 295.636719 C 243.144531 295.636719 256.132812 287.574219 256.132812 277.625 C 256.132812 267.679688 243.144531 259.617188 227.121094 259.617188 C 211.097656 259.617188 198.109375 251.554688 198.109375 241.605469 C 198.109375 231.660156 211.097656 223.597656 227.121094 223.597656 C 243.144531 223.597656 256.132812 231.660156 256.132812 241.605469 "/><path style=" stroke:none;fill-rule:nonzero;fill:rgb(22.749329%,26.669312%,38.038635%);fill-opacity:1;" d="M 227.117188 302.984375 C 206.726562 302.984375 190.753906 291.84375 190.753906 277.625 C 190.753906 273.566406 194.046875 270.277344 198.105469 270.277344 C 202.167969 270.277344 205.460938 273.566406 205.460938 277.625 C 205.460938 282.554688 214.921875 288.289062 227.117188 288.289062 C 239.316406 288.289062 248.777344 282.554688 248.777344 277.625 C 248.777344 272.695312 239.316406 266.964844 227.117188 266.964844 C 206.726562 266.964844 190.753906 255.824219 190.753906 241.605469 C 190.753906 227.390625 206.726562 216.25 227.117188 216.25 C 247.511719 216.25 263.484375 227.390625 263.484375 241.605469 C 263.484375 245.664062 260.191406 248.953125 256.132812 248.953125 C 252.070312 248.953125 248.777344 245.664062 248.777344 241.605469 C 248.777344 236.675781 239.316406 230.945312 227.117188 230.945312 C 214.921875 230.945312 205.460938 236.675781 205.460938 241.605469 C 205.460938 246.539062 214.921875 252.269531 227.117188 252.269531 C 247.511719 252.269531 263.484375 263.40625 263.484375 277.625 C 263.484375 291.84375 247.511719 302.984375 227.117188 302.984375 Z M 227.117188 302.984375 "/><path style=" stroke:none;fill-rule:nonzero;fill:rgb(22.749329%,26.669312%,38.038635%);fill-opacity:1;" d="M 228.972656 315.171875 C 224.914062 315.171875 221.621094 311.882812 221.621094 307.824219 L 221.621094 211.410156 C 221.621094 207.351562 224.914062 204.0625 228.972656 204.0625 C 233.035156 204.0625 236.328125 207.351562 236.328125 211.410156 L 236.328125 307.824219 C 236.328125 311.882812 233.035156 315.171875 228.972656 315.171875 Z M 228.972656 315.171875 "/></g></svg>