<?xml version="1.0" encoding="UTF-8"?><svg xmlns="http://www.w3.org/2000/svg" xmlns:xlink="http://www.w3.org/1999/xlink" width="375pt" zoomAndPan="magnify" viewBox="0 0 375 374.999991" height="374.999991pt" preserveAspectRatio="xMidYMid meet" version="1.2"><defs><clipPath xml:id="clip1" id="clip1"><path d="M 71.878906 198.472656 L 155.878906 198.472656 L 155.878906 242.722656 L 71.878906 242.722656 Z M 71.878906 198.472656 "/></clipPath></defs><g xml:id="surface1" id="surface1"><path style="fill-rule:evenodd;fill:rgb(100%,100%,100%);fill-opacity:1;stroke-width:4;stroke-linecap:round;stroke-linejoin:round;stroke:rgb(22.749329%,26.669312%,38.038635%);stroke-opacity:1;stroke-miterlimit:4;" d="M 102.237348 56.999793 L 102.237348 94.991912 C 102.237348 97.205697 100.437545 99.000382 98.240705 99.000382 L 20.082837 99.000382 C 19.820092 99.000382 19.560266 98.974097 19.3019 98.922987 C 19.044994 98.870417 18.793927 98.794482 18.551617 98.693723 C 18.309308 98.592963 18.078676 98.468839 17.859722 98.322811 C 17.640768 98.176783 17.43933 98.010311 17.253949 97.824856 C 17.068568 97.63794 16.902163 97.436421 16.756193 97.217379 C 16.611684 96.998337 16.48761 96.767613 16.388351 96.525206 C 16.287632 96.281339 16.211728 96.031631 16.162098 95.773162 C 16.111009 95.514692 16.086194 95.254762 16.086194 94.991912 L 16.086194 56.999793 " transform="matrix(2.676074,0,0,2.675,0.174809,26.931817)"/><path style=" stroke:none;fill-rule:evenodd;fill:rgb(100%,8.628845%,8.628845%);fill-opacity:1;" d="M 168.710938 64.382812 L 197.058594 64.382812 L 218.324219 129.492188 L 218.324219 168.554688 C 218.324219 168.554688 207.691406 179.40625 197.058594 179.40625 C 186.429688 179.40625 175.796875 168.554688 175.796875 168.554688 L 175.796875 129.492188 L 168.714844 64.382812 Z M 114.09375 64.382812 L 142.445312 64.382812 L 135.359375 129.492188 L 135.359375 168.554688 C 135.359375 168.554688 124.726562 179.40625 114.09375 179.40625 C 103.464844 179.40625 92.832031 168.554688 92.832031 168.554688 L 92.832031 129.492188 Z M 56.566406 64.382812 L 92.832031 64.382812 L 51.730469 129.492188 L 51.730469 168.554688 C 51.730469 168.554688 40.84375 179.40625 29.960938 179.40625 C 19.082031 179.40625 8.203125 168.554688 8.203125 168.554688 L 8.203125 129.492188 Z M 227.078125 64.382812 L 256.96875 64.382812 L 308.789062 129.492188 L 308.789062 168.554688 C 308.789062 168.554688 292.605469 179.40625 282.261719 179.40625 C 271.914062 179.40625 262.714844 168.554688 262.714844 168.554688 L 262.714844 129.492188 Z M 227.078125 64.382812 "/><path style="fill:none;stroke-width:4;stroke-linecap:round;stroke-linejoin:round;stroke:rgb(22.749329%,26.669312%,38.038635%);stroke-opacity:1;stroke-miterlimit:4;" d="M 21.774622 13.000081 L 96.375216 13.000081 L 117.289715 39.286591 L -0.186478 39.286591 Z M 97.627634 52.687585 C 97.192645 53.030751 96.745978 53.357854 96.287634 53.667433 C 94.140424 55.114571 91.952342 55.999501 89.758422 55.999501 C 87.563042 55.999501 85.3735 55.114571 83.230669 53.667433 C 82.770866 53.357854 82.322739 53.030751 81.88921 52.687585 C 81.455681 53.030751 81.009015 53.357854 80.549211 53.667433 C 78.40346 55.114571 76.215379 55.999501 74.019999 55.999501 C 71.826078 55.999501 69.636537 55.114571 67.492246 53.667433 C 67.032442 53.357854 66.585776 53.030751 66.152247 52.687585 C 65.717258 53.030751 65.270591 53.357854 64.810788 53.667433 C 62.667957 55.114571 60.478415 55.999501 58.284495 55.999501 C 56.089115 55.999501 53.901033 55.114571 51.755282 53.667433 C 51.296938 53.357854 50.850272 53.030751 50.415283 52.687585 C 49.981754 53.030751 49.535087 53.357854 49.075284 53.667433 C 46.929533 55.114571 44.741451 55.999501 42.547531 55.999501 C 40.352151 55.999501 38.16261 55.114571 36.018319 53.667433 C 35.559975 53.357854 35.113308 53.030751 34.678319 52.687585 C 34.24479 53.030751 33.798124 53.357854 33.33832 53.667433 C 31.19257 55.114571 29.004488 55.999501 26.810567 55.999501 C 24.615187 55.999501 22.425646 55.114571 20.281355 53.667433 C 19.823011 53.357854 19.376345 53.030751 18.941356 52.687585 C 18.507827 53.030751 18.0597 53.357854 17.599897 53.667433 C 15.455606 55.114571 13.267524 55.999501 11.073604 55.999501 C 8.830054 55.999501 6.752909 55.076604 4.862605 53.576896 C 3.776592 52.71533 2.97668 51.853765 2.502279 51.237527 L 2.090645 50.698683 L 2.090645 35.285422 L 115.142505 35.285422 L 115.142505 50.808204 L 114.605337 51.385015 C 114.053573 51.976428 113.135425 52.811709 111.941395 53.64845 C 109.861331 55.10581 107.702443 55.999501 105.495386 55.999501 C 103.301465 55.999501 101.111924 55.114571 98.967633 53.667433 C 98.509289 53.357854 98.062623 53.030751 97.627634 52.687585 Z M 97.627634 52.687585 " transform="matrix(2.676074,0,0,2.675,0.174809,26.931817)"/><path style="fill:none;stroke-width:1;stroke-linecap:square;stroke-linejoin:round;stroke:rgb(22.749329%,26.669312%,38.038635%);stroke-opacity:1;stroke-miterlimit:4;" d="M 71.157538 55.999501 L 71.157538 99.000382 " transform="matrix(2.676074,0,0,2.675,0.174809,26.931817)"/><path style="fill:none;stroke-width:1;stroke-linecap:square;stroke-linejoin:round;stroke:rgb(22.749329%,26.669312%,38.038635%);stroke-opacity:1;stroke-miterlimit:4;" d="M 1.635282 1.943719 L 1.635282 12.056161 " transform="matrix(2.676074,0,0,2.675,206.647301,208.831803)"/><path style=" stroke:none;fill-rule:nonzero;fill:rgb(22.749329%,26.669312%,38.038635%);fill-opacity:1;" d="M 215.402344 211.953125 C 215.402344 212.367188 215.292969 212.765625 215.070312 213.148438 C 214.847656 213.53125 214.53125 213.867188 214.121094 214.160156 C 213.710938 214.453125 213.238281 214.679688 212.699219 214.835938 C 212.164062 214.996094 211.605469 215.074219 211.023438 215.074219 C 210.445312 215.074219 209.886719 214.996094 209.351562 214.835938 C 208.8125 214.679688 208.339844 214.453125 207.929688 214.160156 C 207.519531 213.867188 207.203125 213.53125 206.980469 213.148438 C 206.757812 212.765625 206.648438 212.367188 206.648438 211.953125 C 206.648438 211.539062 206.757812 211.140625 206.980469 210.757812 C 207.203125 210.375 207.519531 210.039062 207.929688 209.746094 C 208.339844 209.453125 208.8125 209.226562 209.351562 209.070312 C 209.886719 208.910156 210.445312 208.832031 211.023438 208.832031 C 211.605469 208.832031 212.164062 208.910156 212.699219 209.070312 C 213.238281 209.226562 213.710938 209.453125 214.121094 209.746094 C 214.53125 210.039062 214.847656 210.375 215.070312 210.757812 C 215.292969 211.140625 215.402344 211.539062 215.402344 211.953125 Z M 215.402344 211.953125 "/><path style=" stroke:none;fill-rule:nonzero;fill:rgb(22.749329%,26.669312%,38.038635%);fill-opacity:1;" d="M 215.402344 243.160156 C 215.402344 243.574219 215.292969 243.972656 215.070312 244.355469 C 214.847656 244.738281 214.53125 245.074219 214.121094 245.367188 C 213.710938 245.660156 213.238281 245.886719 212.699219 246.042969 C 212.164062 246.203125 211.605469 246.28125 211.023438 246.28125 C 210.445312 246.28125 209.886719 246.203125 209.351562 246.042969 C 208.8125 245.886719 208.339844 245.660156 207.929688 245.367188 C 207.519531 245.074219 207.203125 244.738281 206.980469 244.355469 C 206.757812 243.972656 206.648438 243.574219 206.648438 243.160156 C 206.648438 242.746094 206.757812 242.347656 206.980469 241.964844 C 207.203125 241.582031 207.519531 241.246094 207.929688 240.953125 C 208.339844 240.660156 208.8125 240.433594 209.351562 240.277344 C 209.886719 240.117188 210.445312 240.039062 211.023438 240.039062 C 211.605469 240.039062 212.164062 240.117188 212.699219 240.277344 C 213.238281 240.433594 213.710938 240.660156 214.121094 240.953125 C 214.53125 241.246094 214.847656 241.582031 215.070312 241.964844 C 215.292969 242.347656 215.402344 242.746094 215.402344 243.160156 Z M 215.402344 243.160156 "/><path style="fill:none;stroke-width:1;stroke-linecap:round;stroke-linejoin:round;stroke:rgb(0%,78.819275%,40.388489%);stroke-opacity:1;stroke-miterlimit:4;" d="M 31.659672 76.218545 L 41.420647 67.268486 M 26.343465 87.59413 L 53.826588 62.39407 M 38.749407 82.719714 L 48.508922 73.769655 " transform="matrix(2.676074,0,0,2.675,0.174809,26.931817)"/><path style=" stroke:none;fill-rule:evenodd;fill:rgb(100%,100%,100%);fill-opacity:1;" d="M 233.476562 38.554688 L 353.785156 59.757812 C 354.648438 59.910156 355.492188 60.144531 356.3125 60.464844 C 357.128906 60.78125 357.910156 61.179688 358.652344 61.648438 C 359.390625 62.121094 360.078125 62.660156 360.714844 63.269531 C 361.347656 63.875 361.917969 64.539062 362.421875 65.257812 C 362.925781 65.976562 363.355469 66.738281 363.707031 67.542969 C 364.0625 68.347656 364.335938 69.179688 364.523438 70.035156 C 364.714844 70.894531 364.820312 71.761719 364.839844 72.636719 C 364.859375 73.515625 364.792969 74.386719 364.640625 75.253906 L 320.570312 325.070312 C 320.417969 325.9375 320.183594 326.777344 319.863281 327.597656 C 319.546875 328.414062 319.152344 329.195312 318.679688 329.933594 C 318.207031 330.675781 317.667969 331.363281 317.058594 332 C 316.453125 332.632812 315.789062 333.203125 315.070312 333.707031 C 314.347656 334.207031 313.585938 334.636719 312.78125 334.992188 C 311.980469 335.34375 311.148438 335.617188 310.289062 335.808594 C 309.433594 335.996094 308.5625 336.101562 307.6875 336.121094 C 306.808594 336.140625 305.9375 336.074219 305.070312 335.921875 L 184.765625 314.714844 C 183.898438 314.5625 183.054688 314.328125 182.238281 314.011719 C 181.417969 313.691406 180.640625 313.296875 179.898438 312.824219 C 179.15625 312.351562 178.46875 311.8125 177.835938 311.207031 C 177.199219 310.597656 176.628906 309.933594 176.125 309.214844 C 175.621094 308.496094 175.195312 307.734375 174.839844 306.929688 C 174.484375 306.128906 174.214844 305.296875 174.023438 304.4375 C 173.832031 303.582031 173.730469 302.714844 173.710938 301.835938 C 173.691406 300.957031 173.757812 300.085938 173.910156 299.222656 L 217.976562 49.402344 C 218.128906 48.539062 218.367188 47.695312 218.683594 46.878906 C 219.003906 46.058594 219.398438 45.28125 219.871094 44.539062 C 220.34375 43.796875 220.882812 43.109375 221.488281 42.476562 C 222.097656 41.84375 222.761719 41.273438 223.480469 40.769531 C 224.199219 40.265625 224.960938 39.835938 225.765625 39.484375 C 226.570312 39.128906 227.402344 38.855469 228.257812 38.667969 C 229.117188 38.476562 229.984375 38.371094 230.863281 38.351562 C 231.742188 38.335938 232.613281 38.402344 233.476562 38.554688 Z M 233.476562 38.554688 "/><path style="fill:none;stroke-width:4;stroke-linecap:round;stroke-linejoin:round;stroke:rgb(22.749329%,26.669312%,38.038635%);stroke-opacity:1;stroke-miterlimit:4;" d="M 6.002519 -1.999749 L 51.653048 -2.000488 C 51.882963 -1.99951 52.111525 -1.989396 52.339494 -1.965832 C 52.56721 -1.943707 52.794078 -1.90957 53.018156 -1.866043 C 53.243925 -1.821332 53.465719 -1.765541 53.684976 -1.698922 C 53.904232 -1.632304 54.119513 -1.554605 54.332004 -1.467517 C 54.54331 -1.378737 54.750134 -1.281753 54.952983 -1.173688 C 55.154394 -1.06537 55.351577 -0.94741 55.541403 -0.820738 C 55.73292 -0.692882 55.917079 -0.556314 56.093882 -0.411035 C 56.270684 -0.265756 56.440129 -0.111765 56.602217 0.0509365 C 56.765488 0.211947 56.918528 0.382175 57.063957 0.559677 C 57.209385 0.737178 57.345512 0.920769 57.473774 1.110194 C 57.600853 1.301311 57.718629 1.498516 57.826851 1.700373 C 57.935072 1.902229 58.0323 2.108989 58.120226 2.321837 C 58.207898 2.533248 58.284325 2.748124 58.351195 2.967651 C 58.418066 3.187178 58.47369 3.410171 58.519251 3.634938 C 58.563121 3.85852 58.597182 4.085315 58.619743 4.314138 C 58.642051 4.541522 58.652858 4.770935 58.653096 4.999245 L 58.65359 99.830636 C 58.652643 100.060638 58.642565 100.289285 58.619041 100.517336 C 58.596955 100.745135 58.562862 100.972085 58.517945 101.196495 C 58.473029 101.420904 58.417542 101.644212 58.350979 101.863542 C 58.284416 102.082872 58.208213 102.297971 58.119496 102.509345 C 58.03247 102.721903 57.934113 102.929045 57.825864 103.130518 C 57.717868 103.333429 57.601163 103.528978 57.473381 103.72055 C 57.345345 103.910683 57.208854 104.094893 57.063654 104.271742 C 56.918454 104.448592 56.764545 104.618079 56.601927 104.780206 C 56.441 104.943517 56.270857 105.096591 56.093442 105.24205 C 55.916028 105.38751 55.732525 105.523662 55.541498 105.650763 C 55.352162 105.779047 55.155047 105.896841 54.953282 106.005075 C 54.749825 106.112125 54.54341 106.2108 54.332092 106.298476 C 54.119335 106.386406 53.90455 106.462832 53.685116 106.529697 C 53.465681 106.596563 53.244217 106.651924 53.019287 106.696033 C 52.793174 106.741835 52.567653 106.774186 52.33892 106.796724 C 52.110187 106.819262 51.882553 106.831227 51.652892 106.831686 L 6.003547 106.830734 C 5.773885 106.831194 5.545069 106.819642 5.317354 106.797517 C 5.088201 106.775645 4.86277 106.741254 4.637001 106.696543 C 4.412669 106.651579 4.190875 106.595787 3.971619 106.529169 C 3.750925 106.462804 3.535897 106.386543 3.324591 106.297763 C 3.112101 106.210675 2.905023 106.112253 2.703612 106.003935 C 2.500763 105.89587 2.305271 105.779094 2.113754 105.651238 C 1.923675 105.523128 1.739769 105.387998 1.562713 105.241281 C 1.384473 105.096255 1.215028 104.942265 1.053194 104.781001 C 0.891106 104.618299 0.736883 104.449763 0.591454 104.272261 C 0.446025 104.094759 0.309898 103.911169 0.18282 103.720052 C 0.0557415 103.528935 -0.0617814 103.333168 -0.170003 103.131312 C -0.278477 102.928018 -0.377143 102.721511 -0.464815 102.510101 C -0.552488 102.29869 -0.629168 102.082375 -0.696038 101.862849 C -0.762909 101.643322 -0.818279 101.421767 -0.862403 101.196746 C -0.906527 100.971726 -0.940588 100.744931 -0.962895 100.517546 C -0.985456 100.288724 -0.997448 100.061003 -0.996501 99.831001 L -0.996995 4.99961 C -0.997233 4.7713 -0.985716 4.5424 -0.963631 4.314601 C -0.940361 4.085111 -0.907451 3.859853 -0.862788 3.634005 C -0.817872 3.409595 -0.762132 3.187725 -0.695569 2.968395 C -0.629005 2.749065 -0.551619 2.532275 -0.464339 2.321155 C -0.375622 2.109781 -0.278703 1.902892 -0.170707 1.699982 C -0.0624573 1.498509 0.0554317 1.301268 0.183467 1.111134 C 0.309812 0.919816 0.446556 0.737044 0.591503 0.558757 C 0.736703 0.381908 0.890612 0.21242 1.05323 0.0502936 C 1.215848 -0.111833 1.3843 -0.266092 1.561715 -0.411551 C 1.739129 -0.55701 1.922632 -0.693163 2.113659 -0.820263 C 2.304687 -0.947363 2.501801 -1.065157 2.703567 -1.173391 C 2.905332 -1.281625 3.112 -1.378862 3.324756 -1.466792 C 3.536075 -1.554469 3.752044 -1.632586 3.971733 -1.698013 C 4.191167 -1.764879 4.412631 -1.82024 4.637307 -1.865787 C 4.862237 -1.909897 5.088941 -1.94394 5.316237 -1.966224 C 5.54497 -1.988763 5.774295 -1.999542 6.002519 -1.999749 Z M 6.002519 -1.999749 " transform="matrix(2.635419,0.464509,-0.464695,2.634361,217.657826,35.764993)"/><path style="fill:none;stroke-width:1;stroke-linecap:butt;stroke-linejoin:miter;stroke:rgb(22.749329%,26.669312%,38.038635%);stroke-opacity:1;stroke-miterlimit:4;" d="M 35.34781 95.17668 C 35.347626 95.385789 35.336872 95.593795 35.314365 95.802391 C 35.291857 96.010987 35.257343 96.218735 35.213442 96.423689 C 35.168104 96.628897 35.112196 96.833003 35.045212 97.033131 C 34.978227 97.233258 34.901856 97.430593 34.812971 97.624202 C 34.725524 97.817559 34.627 98.006937 34.518836 98.192083 C 34.410418 98.375792 34.292361 98.555269 34.164665 98.730515 C 34.036715 98.904322 33.90031 99.072206 33.754012 99.234421 C 33.609151 99.396382 33.454144 99.551235 33.292119 99.699912 C 33.128402 99.847404 32.959106 99.988467 32.780846 100.120729 C 32.60284 100.25443 32.418747 100.378825 32.227382 100.495605 C 32.035764 100.610947 31.839749 100.718167 31.636462 100.817773 C 31.43436 100.915687 31.226423 101.005733 31.013836 101.086219 C 30.80125 101.166705 30.585451 101.237378 30.364748 101.297053 C 30.144299 101.358167 29.922074 101.409213 29.696638 101.450447 C 29.471201 101.49168 29.243736 101.521409 29.014749 101.542509 C 28.785508 101.562171 28.557621 101.572697 28.326522 101.57341 C 28.096607 101.572432 27.868045 101.562318 27.639145 101.541884 C 27.410246 101.52145 27.182447 101.490443 26.957439 101.450046 C 26.73243 101.409649 26.508522 101.358679 26.288843 101.298066 C 26.068909 101.236016 25.852021 101.166014 25.640798 101.086116 C 25.428139 101.006472 25.219707 100.917186 25.016942 100.818003 C 24.814177 100.718821 24.617332 100.61118 24.426406 100.495082 C 24.23548 100.378984 24.050474 100.254428 23.872826 100.12116 C 23.695177 99.987893 23.525139 99.847352 23.362712 99.699539 C 23.200285 99.551725 23.045469 99.396638 22.899701 99.234024 C 22.754186 99.072848 22.61772 98.904146 22.489119 98.729608 C 22.362208 98.556256 22.243162 98.377068 22.134855 98.191538 C 22.026802 98.007446 21.92805 97.817265 21.840546 97.623619 C 21.753041 97.429972 21.675345 97.233113 21.608896 97.032789 C 21.54101 96.832717 21.485807 96.628927 21.440667 96.423362 C 21.395781 96.219235 21.362141 96.011642 21.340255 95.80346 C 21.316678 95.594093 21.306545 95.385321 21.306729 95.176213 C 21.305222 94.96592 21.317413 94.75766 21.339921 94.549064 C 21.362428 94.340468 21.395505 94.132973 21.440843 93.927766 C 21.486181 93.722558 21.542343 93.51989 21.607636 93.318578 C 21.674621 93.11845 21.752429 92.920862 21.839877 92.727506 C 21.928762 92.533896 22.025849 92.344771 22.135703 92.160809 C 22.243867 91.975663 22.361924 91.796186 22.489874 91.622378 C 22.61757 91.447133 22.753975 91.279249 22.900274 91.117034 C 23.045388 90.956511 23.200142 90.800219 23.36242 90.652981 C 23.524446 90.504304 23.695434 90.364426 23.873439 90.230725 C 24.050261 90.098716 24.235792 89.974068 24.425719 89.857541 C 24.617084 89.740761 24.814537 89.633288 25.017823 89.533682 C 25.219926 89.435768 25.427862 89.345722 25.640449 89.265236 C 25.853289 89.186188 26.069088 89.115515 26.289538 89.054402 C 26.508549 88.993542 26.732211 88.942242 26.957901 88.902446 C 27.183338 88.861213 27.41055 88.830046 27.638099 88.8092 C 27.86734 88.789538 28.096664 88.778758 28.32658 88.779736 C 28.557679 88.779023 28.786241 88.789137 29.01514 88.809571 C 29.244039 88.830005 29.471839 88.861012 29.696847 88.901409 C 29.922109 88.943244 30.144326 88.993029 30.365697 89.054826 C 30.585376 89.115439 30.800827 89.185694 31.013487 89.265338 C 31.2264 89.346421 31.433394 89.435961 31.636159 89.535143 C 31.840108 89.632634 32.036954 89.740275 32.227879 89.856373 C 32.419059 89.973909 32.604065 90.098465 32.78146 90.230294 C 32.959109 90.363562 33.129146 90.504102 33.291574 90.651916 C 33.454254 90.801168 33.60907 90.956255 33.754585 91.117431 C 33.900353 91.280045 34.036565 91.447309 34.165167 91.621846 C 34.292331 91.796637 34.40994 91.976079 34.519431 92.159917 C 34.627737 92.345447 34.726235 92.53419 34.81374 92.727836 C 34.901245 92.921483 34.97894 93.118341 35.045389 93.318666 C 35.111838 93.518991 35.168479 93.722528 35.213618 93.928093 C 35.257321 94.133911 35.292145 94.339812 35.314284 94.549433 C 35.33617 94.757615 35.34774 94.966134 35.34781 95.17668 Z M 35.34781 95.17668 " transform="matrix(2.635419,0.464509,-0.464695,2.634361,217.657826,35.764993)"/><path style="fill:none;stroke-width:1;stroke-linecap:round;stroke-linejoin:round;stroke:rgb(22.749329%,26.669312%,38.038635%);stroke-opacity:1;stroke-miterlimit:4;" d="M 57.15329 85.05951 L 0.501825 85.060499 M 0.501456 12.413371 L 57.154613 12.413567 " transform="matrix(2.635419,0.464509,-0.464695,2.634361,217.657826,35.764993)"/><path style="fill:none;stroke-width:2;stroke-linecap:round;stroke-linejoin:round;stroke:rgb(22.749329%,26.669312%,38.038635%);stroke-opacity:1;stroke-miterlimit:4;" d="M 22.810192 6.43643 L 35.847897 6.437366 " transform="matrix(2.635419,0.464509,-0.464695,2.634361,217.657826,35.764993)"/><path style=" stroke:none;fill-rule:nonzero;fill:rgb(100%,100%,100%);fill-opacity:1;" d="M 66.125 191.519531 L 147.875 191.519531 L 147.875 273.269531 L 66.125 273.269531 Z M 66.125 191.519531 "/><g clip-rule="nonzero" clip-path="url(#clip1)"><path style=" stroke:none;fill-rule:nonzero;fill:rgb(22.749329%,26.669312%,38.038635%);fill-opacity:1;" d="M 155.878906 242.734375 L 71.980469 242.734375 L 71.917969 241.320312 C 71.910156 241.023438 71.910156 240.710938 71.910156 240.40625 C 71.910156 217.320312 90.761719 198.546875 113.9375 198.546875 C 137.105469 198.546875 155.949219 217.320312 155.949219 240.40625 C 155.949219 240.699219 155.949219 241.015625 155.9375 241.320312 Z M 74.871094 239.785156 L 152.976562 239.785156 C 152.640625 218.621094 135.25 201.496094 113.929688 201.496094 C 92.609375 201.507812 75.207031 218.621094 74.871094 239.785156 Z M 74.871094 239.785156 "/></g><path style=" stroke:none;fill-rule:nonzero;fill:rgb(22.749329%,26.669312%,38.038635%);fill-opacity:1;" d="M 122.449219 236.816406 L 105.410156 236.816406 L 105.410156 218.117188 C 105.410156 216.042969 107.109375 214.351562 109.191406 214.351562 L 118.667969 214.351562 C 120.75 214.351562 122.449219 216.042969 122.449219 218.117188 Z M 108.371094 233.863281 L 119.476562 233.863281 L 119.476562 218.117188 C 119.476562 217.664062 119.113281 217.300781 118.65625 217.300781 L 109.179688 217.300781 C 108.726562 217.300781 108.363281 217.664062 108.363281 218.117188 L 108.363281 233.863281 Z M 108.371094 233.863281 "/></g></svg>