<svg xmlns="http://www.w3.org/2000/svg" xmlns:xlink="http://www.w3.org/1999/xlink" width="140" height="120" style=""><rect id="backgroundrect" width="100%" height="100%" x="0" y="0" fill="none" stroke="none"/>
    <defs>
        <path id="a" d="M15.112 5.002A4.995 4.995 0 0 1 20.106 0h87.012a5 5 0 0 1 4.994 5.002V55h-97V5.002zm0 50.346h97l16 10.4v5.25A3.008 3.008 0 0 1 125.106 74H3.119a3.005 3.005 0 0 1-3.007-3.003v-5.25l15-10.399z"/>
    </defs>
    
<g class="currentLayer" style=""><title>Layer 1</title><g fill="none" fill-rule="evenodd" id="svg_1" class="selected">
        <g stroke-linejoin="round" id="svg_2">
            <g stroke-linecap="round" id="svg_3">
                <use fill="#FFF" xlink:href="#a" y="38" x="5.9900407791137695" id="svg_4"/>
                <path stroke="#3A4461" stroke-width="4" d="M19.102040823817255,43.002 A6.995,6.995 0 0 1 26.096040823817255,36 h87.012 c3.863,0 6.994,3.137 6.994,7.002 V95 h-101 V43.002 zm1.375,48.346000000000004 h98.218 l17.407,11.315 v6.334 A5.008,5.008 0 0 1 131.09604082381725,114 H9.109040823817253 a5.005,5.005 0 0 1 -5.007,-5.003 v-6.296 l16.375,-11.353 z" id="svg_5"/>
            </g>
            <path stroke="#3A4461" stroke-linecap="round" d="M16.53704081237316,102.5 h106.32 " id="svg_6"/>
            <path stroke="#3A4461" stroke-linecap="square" d="M19.62104081237316,93.5 h101.168 " id="svg_7"/>
        </g>
        <path fill="#FFF" stroke="#3A4461" stroke-linecap="round" stroke-linejoin="round" d="M47.38904081237316,6.495 l55.696,9.82 l7.912,9.519 L99.07704081237316,93.5 H30.010040812373163 L45.07204081237316,8.117 a2,2 0 0 1 2.317,-1.622 z" id="svg_8"/>
        <path fill="#3A4461" stroke="#3A4461" stroke-linecap="round" stroke-linejoin="round" d="M102.88604081237317,14.25 l9.733,13.9 l-8.866,-1.5630000000000002 v0.0010000000000000002 a3,3 0 0 1 -2.433,-3.476 l1.566,-8.863 z" id="svg_9"/>
        <path stroke="#3A4461" stroke-linecap="round" stroke-linejoin="round" stroke-width="4" d="M39.01504081237316,33.829 l4.84,-27.45 a2,2 0 0 1 2.317,-1.622 l54.587,9.625 a5,5 0 0 1 3.228,2.056 l6.952,9.93 a5,5 0 0 1 0.8280000000000001,3.7350000000000003 l-0.9570000000000001,5.429 " id="svg_10"/>
        <path fill="#00C967" d="M53.93704081237316,18.311 l46.285,8.161 l-2.952,16.742 l-46.285,-8.161 zM44.21204081237316,73.46 l18.712,3.3 l-1.3900000000000001,7.878 l-18.711,-3.3 l1.3900000000000001,-7.878 zm1.6230000000000002,2.317 l-0.6950000000000002,3.94 L59.912040812373164,82.32 l0.6950000000000002,-3.94 l-14.772,-2.604 z" id="svg_11"/>
        <path fill="#3A4461" d="M49.42204081237316,43.916 l19.696,3.473 l-0.6950000000000002,3.94 l-19.696,-3.474 zM48.20604081237316,50.81 L94.49204081237316,58.97 l-0.3470000000000001,1.97 l-46.286,-8.162 zM47.51204081237316,54.749 l46.286,8.161 l-0.3480000000000001,1.97 l-46.286,-8.161 zM46.817040812373165,58.688 l46.286,8.162 l-0.3470000000000001,1.97 l-46.286,-8.162 zM77.63604081237317,68.184 l14.772,2.605 l-0.3470000000000001,1.97 l-14.772,-2.605 z" id="svg_12"/>
    </g><rect fill="#eb1a1a" stroke="#d50b0b" stroke-width="2" stroke-linejoin="round" stroke-dashoffset="" fill-rule="nonzero" id="svg_29" x="53.17040252685547" y="23.31449317932129" width="44.81974792480469" height="14.777973175048828" style="color: rgb(0, 0, 0);" class="" transform="rotate(9.48840618133545 75.5802764892578,30.703479766845657) "/><rect fill="#eb1a1a" stroke="#d50b0b" stroke-width="2" stroke-linejoin="round" stroke-dashoffset="" fill-rule="nonzero" x="52.45753479003906" y="22.81097412109375" width="46.02748489379883" height="15.868246078491211" style="color: rgb(0, 0, 0);" class="" transform="rotate(9.48840618133545 75.47127532958984,30.745098114013626) " id="svg_39"/><rect fill="#eb1a1a" stroke="#d50b0b" stroke-width="2" stroke-linejoin="round" stroke-dashoffset="" fill-rule="nonzero" id="svg_33" x="61" y="26" width="2" height="3" style="color: rgb(0, 0, 0);"/><path fill="none" fill-opacity="1" stroke="none" stroke-opacity="1" stroke-width="1" stroke-dasharray="none" stroke-linejoin="miter" stroke-linecap="butt" stroke-dashoffset="" fill-rule="evenodd" opacity="1" marker-start="" marker-mid="" marker-end="" d="M45,68.5 C45,67.67127071823204 46.56629834254144,67 48.5,67 C50.43370165745856,67 52,67.67127071823204 52,68.5 C52,69.32872928176796 50.43370165745856,70 48.5,70 C46.56629834254144,70 45,69.32872928176796 45,68.5 Z" id="svg_40"/><path fill="none" stroke-dashoffset="" fill-rule="evenodd" marker-start="" marker-mid="" marker-end="" id="svg_42" d="M43.21142773479583,67.72021370379355 L46.15887591679258,67.72021370379355 L46.15887591679258,70.66766188579027 L43.21142773479583,70.66766188579027 L43.21142773479583,67.72021370379355 zM43.55529668936206,65.1166344763631 L43.55529668936206,67.37634474922719 L45.81500696222624,67.37634474922719 L45.81500696222624,65.1166344763631 L43.55529668936206,65.1166344763631 z" style="color: rgb(0, 0, 0);"/><path fill="none" fill-opacity="1" stroke="none" stroke-opacity="1" stroke-width="1" stroke-dasharray="none" stroke-linejoin="miter" stroke-linecap="butt" stroke-dashoffset="" fill-rule="evenodd" opacity="1" marker-start="" marker-mid="" marker-end="" id="svg_44" d="M 50.53061224489795 79.3469387755102 L 53.63265306122449 79.83673469387755" style="color: rgb(0, 0, 0);"/><path fill="none" stroke-dashoffset="" fill-rule="evenodd" marker-start="" marker-mid="" marker-end="" id="svg_46" d="M50.689081220270175,73.24745740353931 L51.858364403527766,69.61494823969736 L54.91957028325035,67.36990740142423 L58.70348717322341,67.36990740142423 L61.76471195446335,69.61494823969736 L62.933975825301275,73.24745740353931 L61.76471195446335,76.87996656738096 L58.70348717322341,79.1250069947511 L54.91957028325035,79.1250069947511 L51.858364403527766,76.87996656738096 L50.689081220270175,73.24745740353931 z" style="color: rgb(0, 0, 0);"/><rect fill="none" stroke-dashoffset="" fill-rule="evenodd" id="svg_49" x="9" y="56" width="11" height="7" style="color: rgb(0, 0, 0);"/><rect fill="none" stroke-dashoffset="" fill-rule="evenodd" id="svg_51" x="24" y="61" width="9" height="4" style="color: rgb(0, 0, 0);"/><rect fill="none" stroke-dashoffset="" fill-rule="evenodd" id="svg_53" x="41" y="63" width="0" height="0" style="color: rgb(0, 0, 0);"/><rect fill="#ffffff" stroke="#eb1a1a" stroke-dashoffset="" fill-rule="evenodd" id="svg_13" x="43.84773277950679" y="75.6396200817762" width="22.080403804779053" height="7.284016342180188" style="color: rgb(0, 0, 0);" class="" fill-opacity="1" stroke-opacity="1" transform="rotate(9.950626373291016 54.887935638427855,79.28163146972655) "/></g></svg>