<?xml version="1.0" encoding="UTF-8"?><svg xmlns="http://www.w3.org/2000/svg" xmlns:xlink="http://www.w3.org/1999/xlink" width="30pt" zoomAndPan="magnify" viewBox="0 0 30 30.000001" height="30.000001pt" preserveAspectRatio="xMidYMid meet" version="1.2"><defs><clipPath xml:id="clip1" id="clip1"><path d="M 0.484375 0 L 29.515625 0 L 29.515625 29.03125 L 0.484375 29.03125 Z M 0.484375 0 "/></clipPath><clipPath xml:id="clip2" id="clip2"><path d="M 0.484375 2 L 29 2 L 29 26 L 0.484375 26 Z M 0.484375 2 "/></clipPath></defs><g xml:id="surface1" id="surface1"><g clip-rule="nonzero" clip-path="url(#clip1)"><path style=" stroke:none;fill-rule:nonzero;fill:rgb(100%,100%,100%);fill-opacity:1;" d="M 0.484375 0 L 29.515625 0 L 29.515625 36.289062 L 0.484375 36.289062 Z M 0.484375 0 "/><path style=" stroke:none;fill-rule:nonzero;fill:rgb(100%,100%,100%);fill-opacity:1;" d="M 0.484375 0 L 29.515625 0 L 29.515625 29.03125 L 0.484375 29.03125 Z M 0.484375 0 "/><path style=" stroke:none;fill-rule:nonzero;fill:rgb(100%,100%,100%);fill-opacity:1;" d="M 0.484375 0 L 29.515625 0 L 29.515625 29.03125 L 0.484375 29.03125 Z M 0.484375 0 "/></g><path style=" stroke:none;fill-rule:evenodd;fill:rgb(100%,100%,100%);fill-opacity:1;" d="M 27.019531 8.253906 L 27.164062 19.140625 L 27.300781 19.113281 C 27.539062 19.074219 27.765625 19.230469 27.804688 19.46875 L 28.101562 21.15625 C 28.125 21.273438 28.101562 21.382812 28.03125 21.480469 C 27.960938 21.582031 27.867188 21.640625 27.75 21.660156 L 6.824219 25.355469 C 6.707031 25.375 6.597656 25.351562 6.5 25.28125 C 6.402344 25.214844 6.339844 25.121094 6.320312 25 L 6.023438 23.3125 C 5.980469 23.074219 6.136719 22.847656 6.375 22.808594 L 6.515625 22.78125 L 2.925781 12.503906 C 2.886719 12.515625 2.84375 12.523438 2.800781 12.53125 C 1.976562 12.675781 1.199219 12.183594 1.066406 11.425781 C 0.933594 10.667969 1.492188 9.933594 2.320312 9.789062 C 3.144531 9.644531 3.921875 10.140625 4.054688 10.898438 C 4.132812 11.335938 3.976562 11.765625 3.671875 12.078125 C 4.707031 13.246094 7.671875 16.316406 10.023438 15.902344 C 12.050781 15.542969 13.25 10.480469 13.789062 7.476562 C 12.761719 7.390625 11.902344 6.6875 11.730469 5.707031 C 11.519531 4.515625 12.402344 3.363281 13.699219 3.136719 C 14.996094 2.90625 16.21875 3.6875 16.425781 4.875 C 16.59375 5.828125 16.0625 6.753906 15.179688 7.203125 C 16.707031 9.839844 19.578125 14.214844 21.609375 13.859375 C 23.9375 13.449219 25.660156 9.632812 26.25 8.140625 C 25.820312 7.960938 25.492188 7.59375 25.410156 7.128906 C 25.277344 6.371094 25.839844 5.640625 26.664062 5.492188 C 27.492188 5.347656 28.269531 5.84375 28.402344 6.601562 C 28.535156 7.359375 27.972656 8.089844 27.148438 8.234375 C 27.105469 8.242188 27.0625 8.25 27.019531 8.253906 Z M 27.019531 8.253906 "/><g clip-rule="nonzero" clip-path="url(#clip2)"><path style="fill:none;stroke-width:4;stroke-linecap:round;stroke-linejoin:round;stroke:rgb(22.749329%,26.669312%,38.038635%);stroke-opacity:1;stroke-miterlimit:4;" d="M 120.016441 33.779742 L 111.988587 83.133785 L 112.629281 83.119241 C 113.739065 83.13276 114.640042 84.020289 114.626838 85.129172 L 114.624935 92.998393 C 114.637573 93.547118 114.444252 94.023094 114.048087 94.408654 C 113.648806 94.811881 113.177698 95.00206 112.631647 94.996859 L 14.959505 95.007497 C 14.413454 95.002297 13.937035 94.808992 13.551046 94.413033 C 13.161943 94.034742 12.953788 93.560841 12.961947 92.997566 L 12.96385 85.128345 C 12.959371 84.016345 13.847354 83.11636 14.957138 83.129879 L 15.615515 83.118452 L 7.561431 33.770514 C 7.375261 33.792337 7.174523 33.793375 6.973785 33.794412 C 3.127515 33.790224 0.00121447 30.943686 0.00436142 27.410227 C 0.00750837 23.876768 3.121766 21.001181 6.985719 21.008487 C 10.83199 21.012675 13.955174 23.876881 13.952027 27.41034 C 13.956773 29.451432 12.9068 31.270116 11.278347 32.440301 C 15.03276 38.549059 26.005217 54.80202 36.980294 54.806266 C 46.444111 54.799068 55.909959 32.859483 60.745745 19.703623 C 56.163782 18.494935 52.834371 14.628888 52.838261 10.057215 C 52.833546 4.500331 57.74878 -0.0068673 63.800052 0.00357439 C 69.85444 -0.00365118 74.766019 4.505706 74.756166 10.041805 C 74.7564 14.486688 71.613274 18.249797 67.25878 19.576887 C 72.069866 32.721393 81.577461 54.800393 91.055845 54.81398 C 101.921712 54.817186 112.76326 38.931259 116.62333 32.653165 C 114.821555 31.497501 113.629056 29.574874 113.628434 27.406993 C 113.631581 23.873534 116.760406 21.018732 120.609792 21.005253 C 124.473745 21.01256 127.596929 23.876765 127.593783 27.410224 C 127.590636 30.943683 124.46181 33.798485 120.61554 33.794297 C 120.414802 33.795334 120.214064 33.796372 120.016441 33.779742 Z M 120.016441 33.779742 " transform="matrix(0.214249,-0.0378105,0.0377779,0.214434,0.0299705,5.548263)"/></g><path style="fill-rule:evenodd;fill:rgb(100%,100%,100%);fill-opacity:1;stroke-width:1;stroke-linecap:square;stroke-linejoin:round;stroke:rgb(22.749329%,26.669312%,38.038635%);stroke-opacity:1;stroke-miterlimit:4;" d="M 16.860618 83.501947 L 112.909174 83.496492 " transform="matrix(0.214249,-0.0378105,0.0377779,0.214434,0.0299705,5.548263)"/><path style="fill-rule:nonzero;fill:rgb(100%,100%,100%);fill-opacity:1;stroke-width:1;stroke-linecap:round;stroke-linejoin:round;stroke:rgb(22.749329%,26.669312%,38.038635%);stroke-opacity:1;stroke-miterlimit:4;" d="M 87.247395 67.003344 C 87.234192 68.112226 86.8153 69.040275 85.963691 69.837375 C 85.115198 70.616808 84.081454 70.999244 82.877026 71.00547 C 81.675714 70.994029 80.649031 70.612615 79.803209 69.825893 C 78.936589 69.053722 78.520279 68.10592 78.5158 66.993919 C 78.508205 65.899586 78.947895 64.956988 79.796388 64.177555 C 80.644882 63.398123 81.681741 62.998019 82.883053 63.00946 C 84.087481 63.003235 85.114164 63.384649 85.959986 64.17137 C 86.823491 64.961209 87.242916 65.891343 87.247395 67.003344 Z M 87.247395 67.003344 " transform="matrix(0.214249,-0.0378105,0.0377779,0.214434,0.0299705,5.548263)"/><path style="fill-rule:nonzero;fill:rgb(100%,100%,100%);fill-opacity:1;stroke-width:1;stroke-linecap:round;stroke-linejoin:round;stroke:rgb(22.749329%,26.669312%,38.038635%);stroke-opacity:1;stroke-miterlimit:4;" d="M 47.97551 67.000946 C 47.979989 68.112946 47.561097 69.040996 46.709488 69.838096 C 45.860995 70.617528 44.827251 70.999965 43.622823 71.00619 C 42.421511 70.994749 41.394828 70.613335 40.531323 69.823496 C 39.682386 69.054442 39.266076 68.10664 39.261597 66.99464 C 39.254002 65.900307 39.676009 64.95459 40.542185 64.178275 C 41.390679 63.398843 42.409856 62.995621 43.611168 63.007063 C 44.833278 63.003955 45.859961 63.385369 46.705783 64.17209 C 47.551606 64.958811 47.988713 65.892064 47.97551 67.000946 Z M 47.97551 67.000946 " transform="matrix(0.214249,-0.0378105,0.0377779,0.214434,0.0299705,5.548263)"/><path style=" stroke:none;fill-rule:evenodd;fill:rgb(100%,100%,100%);fill-opacity:1;" d="M 15.386719 14.761719 L 17.882812 17.183594 L 16.566406 20.109375 L 14.070312 17.6875 Z M 15.386719 14.761719 "/><path style="fill-rule:nonzero;fill:rgb(92.158508%,10.198975%,10.198975%);fill-opacity:1;stroke-width:2;stroke-linecap:butt;stroke-linejoin:round;stroke:rgb(83.529663%,4.309082%,4.309082%);stroke-opacity:1;stroke-miterlimit:4;" d="M 69.671667 75.085173 L 75.822245 66.01035 L 81.963236 75.084946 L 75.814726 84.141949 Z M 69.671667 75.085173 " transform="matrix(0.216104,-0.0251021,0.0250805,0.21629,-2.123085,3.372006)"/></g></svg>